<svg xmlns="http://www.w3.org/2000/svg" xmlns:xlink="http://www.w3.org/1999/xlink" width="659" height="334" fill="none" viewBox="0 0 659 334"><filter id="workflows_svg__i" width="27.247" height="27.247" x="497.088" y="50.943" color-interpolation-filters="sRGB" filterUnits="userSpaceOnUse"><feFlood flood-opacity="0" result="BackgroundImageFix"></feFlood><feColorMatrix in="SourceAlpha" result="hardAlpha" type="matrix" values="0 0 0 0 0 0 0 0 0 0 0 0 0 0 0 0 0 0 127 0"></feColorMatrix><feOffset dy="0.973"></feOffset><feGaussianBlur stdDeviation="2.433"></feGaussianBlur><feColorMatrix type="matrix" values="0 0 0 0 0 0 0 0 0 0.290196 0 0 0 0 0.454902 0 0 0 0.15 0"></feColorMatrix><feBlend in2="BackgroundImageFix" mode="normal" result="effect1_dropShadow_4823_23815"></feBlend><feBlend in="SourceGraphic" in2="effect1_dropShadow_4823_23815" mode="normal" result="shape"></feBlend></filter><linearGradient id="workflows_svg__a"><stop offset="0" stop-color="#006bff"></stop><stop offset="1" stop-color="#004099"></stop></linearGradient><radialGradient xlink:href="#workflows_svg__a" id="workflows_svg__c" cx="0" cy="0" r="1" gradientTransform="matrix(3.04731 36.4122 -5.3439 .44723 169.222 228.679)" gradientUnits="userSpaceOnUse"></radialGradient><radialGradient xlink:href="#workflows_svg__a" id="workflows_svg__d" cx="0" cy="0" r="1" gradientTransform="matrix(131.30446 -141.10473 124.26707 115.63624 170.501 182.66)" gradientUnits="userSpaceOnUse"></radialGradient><radialGradient xlink:href="#workflows_svg__a" id="workflows_svg__f" cx="0" cy="0" r="1" gradientTransform="matrix(3.04731 36.4122 -5.3439 .44723 486.505 227.561)" gradientUnits="userSpaceOnUse"></radialGradient><radialGradient xlink:href="#workflows_svg__a" id="workflows_svg__j" cx="0" cy="0" r="1" gradientTransform="matrix(131.30446 -141.10473 124.26707 115.63624 488.009 182.498)" gradientUnits="userSpaceOnUse"></radialGradient><clipPath id="workflows_svg__e"><path d="M88.835 243.465h25.598v23.038H88.835z"></path></clipPath><clipPath id="workflows_svg__h"><path d="M468.439 52.44h51.351v38H468.44z"></path></clipPath><path fill="#f5f5f5" d="M0 0h659v334H0z"></path><path fill="#f8f9fb" d="M0 0h658.51v333.663H0z"></path><rect width="291.306" height="281.403" x="24.848" y="26.13" fill="#fff" rx="16.928"></rect><rect width="291.306" height="281.403" x="24.848" y="26.13" stroke="#e7edf6" stroke-width="1.081" rx="16.928"></rect><path stroke="url(#workflows_svg__c)" stroke-dasharray="4.37 4.37" stroke-linecap="round" stroke-width="1.456" d="M170.45 196.438v64.483"></path><rect width="69.454" height="22.624" x="51.612" y="53.508" fill="#e6f0ff" rx="11.312"></rect><text fill="#004eba" font-family="Gilroy" font-size="12.34" font-weight="600" letter-spacing="0"><tspan x="59.905" y="69.035">Workflow</tspan></text><path fill="#fff" stroke="#a6bbd1" stroke-linecap="round" stroke-linejoin="round" stroke-width="0.999" d="M176.334 58.581h-12.693a2.5 2.5 0 0 0-2.498 2.498v26.383a2.5 2.5 0 0 0 2.498 2.498h12.693a2.5 2.5 0 0 0 2.498-2.498V61.079a2.5 2.5 0 0 0-2.498-2.498"></path><path fill="#006bff" d="M163.401 59.924h13.174c.552 0 .999.447.999 1v25.16h-15.173v-25.16a1 1 0 0 1 1-1"></path><g stroke="#fff" stroke-width="0.999"><path stroke-linecap="round" d="M166.617 68.832h6.743M167.46 70.707h5.058"></path><path d="M163.919 63.488v.844M165.056 63.065v1.266M166.194 62.643v1.687"></path></g><path fill="#12b76a" stroke="#12b76a" stroke-linecap="round" stroke-linejoin="round" stroke-width="1.999" d="M184.078 71.471a7.994 7.994 0 1 0 .001-15.988 7.994 7.994 0 0 0-.001 15.988"></path><path stroke="#fff" stroke-linecap="round" stroke-linejoin="round" stroke-width="1.999" d="M184.079 59.479v4.496l2.998 1.5"></path><text fill="#0b3558" font-family="Gilroy" font-size="20" font-weight="bold" letter-spacing="0em"><tspan x="81.501" y="128.338">Send text reminder</tspan></text><rect width="236.323" height="44.849" x="52.34" y="160.236" fill="#fff" rx="7.645"></rect><rect width="236.323" height="44.849" x="52.34" y="160.236" stroke="url(#workflows_svg__d)" stroke-width="1.456" rx="7.645"></rect><text fill="#0b3558" font-family="Gilroy" font-size="13.652" font-weight="600" letter-spacing="0"><tspan x="82.501" y="187.322">24 hours before event starts</tspan></text><rect width="236.323" height="48.886" x="52.34" y="230.54" fill="#ebf3ff" rx="7.645"></rect><rect width="236.323" height="48.886" x="52.34" y="230.54" stroke="#ebf3ff" stroke-width="1.456" rx="7.645"></rect><g clip-path="url(#workflows_svg__e)"><path fill="#fff" stroke="#a6bbd1" stroke-linecap="round" stroke-linejoin="round" stroke-width="0.631" d="M105.49 246.686h-8.02c-.871 0-1.578.706-1.578 1.578v16.67c0 .871.707 1.578 1.579 1.578h8.019c.872 0 1.579-.707 1.579-1.578v-16.67c0-.872-.707-1.578-1.579-1.578"></path><path fill="#006bff" d="M97.318 247.534h8.324c.349 0 .631.283.631.632v15.897h-9.586v-15.897c0-.349.282-.632.63-.632"></path><g stroke="#fff" stroke-width="0.631"><path stroke-linecap="round" d="M99.35 253.161h4.26M99.882 254.347h3.196"></path><path d="M97.646 249.785v.533M98.364 249.519v.799M99.084 249.253v1.066"></path></g><path fill="#12b76a" fill-rule="evenodd" d="m107.541 251.641-1.651 1.189c-.23.227-.624.066-.624-.256v-.933c-1.006 0-1.828-.813-1.828-1.807v-3.931c0-.993.822-1.806 1.828-1.806h7.078c1.005 0 1.828.813 1.828 1.806v3.931c0 .994-.823 1.807-1.828 1.807z" clip-rule="evenodd"></path></g><text fill="#0b3558" font-family="Gilroy" font-size="13.652" font-weight="600" letter-spacing="0"><tspan x="123.167" y="259.646">Send text to invitees</tspan></text><rect width="291.306" height="283.966" x="342.356" y="24.848" fill="#fff" rx="16.928"></rect><rect width="291.306" height="283.966" x="342.356" y="24.848" stroke="#e7edf6" stroke-width="1.081" rx="16.928"></rect><path stroke="url(#workflows_svg__f)" stroke-dasharray="4.37 4.37" stroke-linecap="round" stroke-width="1.456" d="M487.733 195.32v64.483"></path><rect width="69.454" height="22.624" x="369.119" y="52.227" fill="#e6f0ff" rx="11.312"></rect><text fill="#004eba" font-family="Gilroy" font-size="12.34" font-weight="600" letter-spacing="0"><tspan x="377.412" y="67.753">Workflow</tspan></text><g clip-path="url(#workflows_svg__h)"><g stroke="#a6bbd1"><path fill="#fff" stroke-linecap="round" stroke-linejoin="round" stroke-width="1.027" d="M507.98 68.364a.51.51 0 0 0-.205-.411l-18.487-13.87a.51.51 0 0 0-.616 0l-18.487 13.87a.51.51 0 0 0-.205.41V88c0 .283.23.513.513.513h36.973c.284 0 .514-.23.514-.513z"></path><path fill="#006bff" stroke-width="0.257" d="M505.027 70.697c0 .07-.057.128-.128.128h-2.594a.4.4 0 0 0-.216.066l-13.036 8.817c-.043.03-.1.03-.144 0l-13.036-8.817a.4.4 0 0 0-.216-.066h-2.596a.13.13 0 0 1-.128-.129v-6.703c0-.071.057-.129.128-.129h31.838c.071 0 .128.058.128.129z"></path><path fill="#fff" stroke-linecap="round" stroke-linejoin="round" stroke-width="1.027" d="M507.98 68.358a.513.513 0 0 0-.771-.444L488.98 78.478l-18.229-10.564a.514.514 0 0 0-.771.444V88c0 .284.23.514.513.514h36.973c.284 0 .514-.23.514-.514z"></path></g><g filter="url(#workflows_svg__i)"><path fill="#8247f5" stroke="#8247f5" stroke-linecap="round" stroke-linejoin="round" stroke-width="1.946" d="M510.712 71.378a7.785 7.785 0 1 0 0-15.571 7.785 7.785 0 0 0 0 15.57"></path><path fill="#fff" d="M514.152 60.035a4.8 4.8 0 0 0-3.44-1.445h-.714l1.145-1.164-.638-.646-2.229 2.267 2.2 2.27.643-.642-1.137-1.172h.73c2.186 0 3.964 1.804 3.964 4.02 0 2.218-1.778 4.021-3.964 4.021s-3.965-1.803-3.965-4.02v-.457h-.901v.457c0 1.318.506 2.557 1.425 3.489s2.141 1.445 3.441 1.445a4.8 4.8 0 0 0 3.44-1.445 4.94 4.94 0 0 0 1.425-3.49 4.94 4.94 0 0 0-1.425-3.488"></path></g></g><text fill="#0b3558" font-family="Gilroy" font-size="20" font-weight="bold" letter-spacing="0em"><tspan x="389.009" y="127.057">Send follow-up email</tspan></text><rect width="236.323" height="44.849" x="369.847" y="160.074" fill="#fff" rx="7.645"></rect><rect width="236.323" height="44.849" x="369.847" y="160.074" stroke="url(#workflows_svg__j)" stroke-width="1.456" rx="7.645"></rect><text fill="#0b3558" font-family="Gilroy" font-size="13.652" font-weight="600" letter-spacing="0"><tspan x="411.509" y="187.16">2 hours after event ends</tspan></text><rect width="236.323" height="49.211" x="369.847" y="231.497" fill="#ebf3ff" rx="7.645"></rect><rect width="236.323" height="49.211" x="369.847" y="231.497" stroke="#ebf3ff" stroke-width="1.456" rx="7.645"></rect><path fill="#fff" stroke="#a6bbd1" stroke-linecap="round" stroke-linejoin="round" stroke-width="0.631" d="M425.449 254.266a.31.31 0 0 0-.126-.252l-9.754-7.319a.32.32 0 0 0-.379 0l-9.754 7.319a.31.31 0 0 0-.126.252v10.361c0 .174.141.316.315.316h19.509a.316.316 0 0 0 .315-.316z"></path><path fill="#006bff" d="M423.915 255.476a.16.16 0 0 1-.158.158h-1.339a.16.16 0 0 0-.089.027l-6.86 4.64a.16.16 0 0 1-.177 0l-6.86-4.64a.16.16 0 0 0-.088-.027h-1.341a.16.16 0 0 1-.158-.158v-3.492c0-.087.071-.158.158-.158h16.754c.087 0 .158.071.158.158z"></path><path fill="#fff" stroke="#a6bbd1" stroke-linecap="round" stroke-linejoin="round" stroke-width="0.631" d="M425.449 254.263a.317.317 0 0 0-.474-.273l-9.596 5.561-9.595-5.561a.316.316 0 0 0-.474.273v10.364c0 .174.141.315.315.315h19.509a.315.315 0 0 0 .315-.315z"></path><text fill="#0b3558" font-family="Gilroy" font-size="13.652" font-weight="600" letter-spacing="0"><tspan x="437.707" y="260.765">Send email to invitees</tspan></text></svg>