<svg fill="none" height="650" viewBox="0 0 650 650" width="650" xmlns="http://www.w3.org/2000/svg" xmlns:xlink="http://www.w3.org/1999/xlink" data-testid="image" aria-label="Connect your calendars"><title>Connect your calendars</title><filter id="a__5VS4IQZj" color-interpolation-filters="sRGB" filterUnits="userSpaceOnUse" height="748" width="630" x="10.5" y="42"><feFlood flood-opacity="0" result="BackgroundImageFix"></feFlood><feColorMatrix in="SourceAlpha" result="hardAlpha" type="matrix" values="0 0 0 0 0 0 0 0 0 0 0 0 0 0 0 0 0 0 127 0"></feColorMatrix><feOffset dy="4"></feOffset><feGaussianBlur stdDeviation="2.5"></feGaussianBlur><feColorMatrix type="matrix" values="0 0 0 0 0.278431 0 0 0 0 0.403922 0 0 0 0 0.533333 0 0 0 0.04 0"></feColorMatrix><feBlend in2="BackgroundImageFix" mode="normal" result="effect1_dropShadow_6889_10159"></feBlend><feColorMatrix in="SourceAlpha" result="hardAlpha" type="matrix" values="0 0 0 0 0 0 0 0 0 0 0 0 0 0 0 0 0 0 127 0"></feColorMatrix><feOffset dy="10"></feOffset><feGaussianBlur stdDeviation="7.5"></feGaussianBlur><feColorMatrix type="matrix" values="0 0 0 0 0.278431 0 0 0 0 0.403922 0 0 0 0 0.533333 0 0 0 0.04 0"></feColorMatrix><feBlend in2="effect1_dropShadow_6889_10159" mode="normal" result="effect2_dropShadow_6889_10159"></feBlend><feColorMatrix in="SourceAlpha" result="hardAlpha" type="matrix" values="0 0 0 0 0 0 0 0 0 0 0 0 0 0 0 0 0 0 127 0"></feColorMatrix><feOffset dy="40"></feOffset><feGaussianBlur stdDeviation="25"></feGaussianBlur><feColorMatrix type="matrix" values="0 0 0 0 0.278431 0 0 0 0 0.403922 0 0 0 0 0.533333 0 0 0 0.1 0"></feColorMatrix><feBlend in2="effect2_dropShadow_6889_10159" mode="normal" result="effect3_dropShadow_6889_10159"></feBlend><feBlend in="SourceGraphic" in2="effect3_dropShadow_6889_10159" mode="normal" result="shape"></feBlend></filter><filter id="b__5VS4IQZj" color-interpolation-filters="sRGB" filterUnits="userSpaceOnUse" height="532.329" width="506" x="72.5" y="120"><feFlood flood-opacity="0" result="BackgroundImageFix"></feFlood><feColorMatrix in="SourceAlpha" result="hardAlpha" type="matrix" values="0 0 0 0 0 0 0 0 0 0 0 0 0 0 0 0 0 0 127 0"></feColorMatrix><feMorphology in="SourceAlpha" operator="dilate" radius="10" result="effect1_dropShadow_6889_10159"></feMorphology><feOffset dy="10"></feOffset><feGaussianBlur stdDeviation="10"></feGaussianBlur><feComposite in2="hardAlpha" operator="out"></feComposite><feColorMatrix type="matrix" values="0 0 0 0 0.278431 0 0 0 0 0.403922 0 0 0 0 0.533333 0 0 0 0.04 0"></feColorMatrix><feBlend in2="BackgroundImageFix" mode="normal" result="effect1_dropShadow_6889_10159"></feBlend><feBlend in="SourceGraphic" in2="effect1_dropShadow_6889_10159" mode="normal" result="shape"></feBlend></filter><linearGradient id="c__5VS4IQZj" gradientUnits="userSpaceOnUse" x1="76.0102" x2="680.097" y1="43" y2="456.496"><stop offset="0" stop-color="#fff"></stop><stop offset="1" stop-color="#f0f3f8"></stop></linearGradient><linearGradient id="d__5VS4IQZj" gradientUnits="userSpaceOnUse" x1="325.5" x2="325.5" y1="62" y2="690"><stop offset="0" stop-color="#e7edf6"></stop><stop offset="1" stop-color="#fff"></stop></linearGradient><clipPath id="e__5VS4IQZj"><path d="m0 0h650v650h-650z"></path></clipPath><clipPath id="f__5VS4IQZj"><path d="m134.5 165.046h35.9075v35.9075h-35.9075z"></path></clipPath><clipPath id="g__5VS4IQZj"><path d="m134.5 165.046h35.9075v35.9075h-35.9075z"></path></clipPath><clipPath id="h__5VS4IQZj"><path d="m134.5 377.303h35.9075v35.9075h-35.9075z"></path></clipPath><clipPath id="i__5VS4IQZj"><rect height="143.63" rx="8.97687" width="382" x="134.5" y="436.699"></rect></clipPath><mask id="j__5VS4IQZj" fill="#fff"><path d="m134.5 436.699h382v71.815h-382z" fill="#fff"></path></mask><mask id="k__5VS4IQZj" fill="#fff"><path d="m134.5 508.514h382v71.815h-382z" fill="#fff"></path></mask><g clip-path="url(#e__5VS4IQZj)"><g filter="url(#a__5VS4IQZj)"><rect fill="url(#c__5VS4IQZj)" height="628" rx="24" width="510" x="70.5" y="62"></rect><rect height="638" rx="29" stroke="url(#d__5VS4IQZj)" stroke-opacity=".5" stroke-width="10" width="520" x="65.5" y="57"></rect><rect fill="#e6f0ff" height="30" rx="15" width="125.818" x="102.5" y="86"></rect><g fill="#004eba"><path d="m120.409 97.5c-.483 0-.875.3918-.875.875v2.625c0 .483.392.875.875.875h2.625c.483 0 .875-.392.875-.875s-.392-.875-.875-.875h-1.75v-1.75c0-.4832-.392-.875-.875-.875z"></path><path clip-rule="evenodd" d="m127.409 101c0 3.866-3.134 7-7 7s-7-3.134-7-7 3.134-7 7-7 7 3.134 7 7zm-1.75 0c0 2.899-2.35 5.25-5.25 5.25-2.899 0-5.25-2.351-5.25-5.25 0-2.8995 2.351-5.25 5.25-5.25 2.9 0 5.25 2.3505 5.25 5.25z" fill-rule="evenodd"></path><text font-family="Gilroy" font-size="16.3636" font-weight="600" letter-spacing="0"><tspan x="133.645" y="106.588">Availability</tspan></text></g><text fill="#0b3558" font-family="Gilroy" font-size="20" font-weight="600" letter-spacing="0em"><tspan x="240.318" y="107.83">Connect existing calendar</tspan></text><g filter="url(#b__5VS4IQZj)"><rect fill="#fff" height="187.257" rx="15.5" width="445" x="103" y="140.5"></rect><rect height="187.257" rx="15.5" stroke="#d4e0ed" width="445" x="103" y="140.5"></rect><g clip-path="url(#f__5VS4IQZj)"><g clip-path="url(#g__5VS4IQZj)"><path d="m161.901 173.55h-18.899v18.898h18.899z" fill="#fff"></path><path d="m161.905 200.953 8.504-8.505h-8.504z" fill="#ea4335"></path><path d="m170.409 173.55h-8.504v18.898h8.504z" fill="#fbbc04"></path><path d="m161.901 192.448h-18.899v8.505h18.899z" fill="#34a853"></path><path d="m134.5 192.448v5.67c0 1.559 1.276 2.835 2.835 2.835h5.669v-8.505z" fill="#188038"></path><path d="m170.409 173.55v-5.669c0-1.559-1.275-2.835-2.835-2.835h-5.669v8.504z" fill="#1967d2"></path><g fill="#4285f4"><path d="m161.903 165.046h-24.568c-1.559 0-2.835 1.276-2.835 2.835v24.568h8.504v-18.899h18.899z"></path><path d="m146.879 188.196c-.709-.472-1.181-1.181-1.465-2.079l1.654-.661c.141.567.425.992.756 1.323.378.331.803.472 1.323.472.519 0 .992-.141 1.37-.472s.567-.756.567-1.229c0-.519-.189-.944-.615-1.275-.425-.331-.897-.473-1.511-.473h-.945v-1.606h.85c.52 0 .945-.142 1.323-.425.378-.284.52-.662.52-1.181 0-.426-.142-.804-.473-1.04-.331-.283-.708-.378-1.228-.378-.473 0-.851.142-1.134.378-.284.236-.52.567-.614.945l-1.607-.661c.237-.615.615-1.134 1.181-1.607.567-.472 1.323-.708 2.221-.708.662 0 1.276.141 1.795.378.52.236.945.614 1.229 1.086.283.473.425.945.425 1.512s-.142 1.087-.425 1.465c-.284.378-.614.708-1.04.945v.094c.52.236.993.567 1.323 1.04.331.472.52.992.52 1.653 0 .662-.142 1.229-.472 1.701-.331.473-.756.898-1.371 1.181-.567.284-1.228.425-1.937.425-.756-.094-1.512-.33-2.22-.803zm10.063-8.126-1.795 1.323-.898-1.37 3.213-2.315h1.228v10.961h-1.748z"></path></g></g></g><text fill="#0b3558" font-family="Gilroy" font-size="26.9306" font-weight="600" letter-spacing="0em" xml:space="preserve"><tspan x="183.873" y="192.197">Google </tspan></text><rect fill="#fff" height="70.6928" rx="8.41582" width="380.878" x="135.061" y="225.003"></rect><rect height="70.6928" rx="8.41582" stroke="#d4e0ed" stroke-width="1.12211" width="380.878" x="135.061" y="225.003"></rect><text fill="#476788" font-family="Gilroy" font-size="20.198" font-weight="500" letter-spacing="0em"><tspan x="152.454" y="267.227">Google calendars</tspan></text><rect fill="#e6f0ff" fill-opacity=".6" height="35.9075" rx="17.9537" width="35.9075" x="462.639" y="242.396"></rect><path d="m477.592 266.351 6-6-6-6" stroke="#006bff" stroke-linecap="round" stroke-linejoin="round" stroke-width="1.5"></path><rect fill="#fff" height="259.072" rx="15.5" width="445" x="103" y="352.757"></rect><rect height="259.072" rx="15.5" stroke="#d4e0ed" width="445" x="103" y="352.757"></rect><g clip-path="url(#h__5VS4IQZj)"><path d="m0 0h35.9075v35.9075h-35.9075z" fill="#fff" transform="translate(134.5 377.303)"></path><path d="m136.061 378.865h15.612v15.612h-15.612z" fill="#f35325"></path><path d="m153.234 378.865h15.612v15.612h-15.612z" fill="#81bc06"></path><path d="m136.061 396.037h15.612v15.612h-15.612z" fill="#05a6f0"></path><path d="m153.234 396.037h15.612v15.612h-15.612z" fill="#ffba08"></path></g><text fill="#0b3558" font-family="Gilroy" font-size="26.9306" font-weight="600" letter-spacing="0em"><tspan x="183.873" y="404.454">Microsoft</tspan></text><g clip-path="url(#i__5VS4IQZj)"><path d="m134.5 436.699h382v71.815h-382z" fill="#fff"></path><path d="m516.5 508.514v-1.122h-382v1.122 1.122h382z" fill="#d4e0ed" mask="url(#j__5VS4IQZj)"></path><text fill="#476788" font-family="Gilroy" font-size="20.198" font-weight="500" letter-spacing="0em"><tspan x="152.454" y="479.484">Outlook calendars</tspan></text><rect fill="#e6f0ff" fill-opacity=".6" height="35.9075" rx="17.9537" width="35.9075" x="462.639" y="454.653"></rect><path d="m477.592 478.607 6-6-6-6" stroke="#006bff" stroke-linecap="round" stroke-linejoin="round" stroke-width="1.5"></path><path d="m134.5 508.514h382v71.815h-382z" fill="#fff"></path><path d="m516.5 580.329v-1.122h-382v1.122 1.122h382z" fill="#d4e0ed" mask="url(#k__5VS4IQZj)"></path><text fill="#476788" font-family="Gilroy" font-size="20.198" font-weight="500" letter-spacing="0em"><tspan x="152.454" y="551.298">Exchange calendars</tspan></text><rect fill="#e6f0ff" fill-opacity=".6" height="35.9075" rx="17.9537" width="35.9075" x="462.639" y="526.468"></rect><path d="m477.592 550.422 6-6-6-6" stroke="#006bff" stroke-linecap="round" stroke-linejoin="round" stroke-width="1.5"></path></g><rect height="142.508" rx="8.41582" stroke="#d4e0ed" stroke-width="1.12211" width="380.878" x="135.061" y="437.26"></rect></g></g></g></svg>