<svg fill="none" height="650" viewBox="0 0 650 650" width="650" xmlns="http://www.w3.org/2000/svg" xmlns:xlink="http://www.w3.org/1999/xlink" data-testid="image" aria-label="Share your scheduling link"><title>Share your scheduling link</title><filter id="a__AVk6EuKY" color-interpolation-filters="sRGB" filterUnits="userSpaceOnUse" height="719.346" width="630" x="10" y="50"><feFlood flood-opacity="0" result="BackgroundImageFix"></feFlood><feColorMatrix in="SourceAlpha" result="hardAlpha" type="matrix" values="0 0 0 0 0 0 0 0 0 0 0 0 0 0 0 0 0 0 127 0"></feColorMatrix><feOffset dy="4"></feOffset><feGaussianBlur stdDeviation="2.5"></feGaussianBlur><feColorMatrix type="matrix" values="0 0 0 0 0.278431 0 0 0 0 0.403922 0 0 0 0 0.533333 0 0 0 0.04 0"></feColorMatrix><feBlend in2="BackgroundImageFix" mode="normal" result="effect1_dropShadow_6889_10650"></feBlend><feColorMatrix in="SourceAlpha" result="hardAlpha" type="matrix" values="0 0 0 0 0 0 0 0 0 0 0 0 0 0 0 0 0 0 127 0"></feColorMatrix><feOffset dy="10"></feOffset><feGaussianBlur stdDeviation="7.5"></feGaussianBlur><feColorMatrix type="matrix" values="0 0 0 0 0.278431 0 0 0 0 0.403922 0 0 0 0 0.533333 0 0 0 0.04 0"></feColorMatrix><feBlend in2="effect1_dropShadow_6889_10650" mode="normal" result="effect2_dropShadow_6889_10650"></feBlend><feColorMatrix in="SourceAlpha" result="hardAlpha" type="matrix" values="0 0 0 0 0 0 0 0 0 0 0 0 0 0 0 0 0 0 127 0"></feColorMatrix><feOffset dy="40"></feOffset><feGaussianBlur stdDeviation="25"></feGaussianBlur><feColorMatrix type="matrix" values="0 0 0 0 0.278431 0 0 0 0 0.403922 0 0 0 0 0.533333 0 0 0 0.1 0"></feColorMatrix><feBlend in2="effect2_dropShadow_6889_10650" mode="normal" result="effect3_dropShadow_6889_10650"></feBlend><feBlend in="SourceGraphic" in2="effect3_dropShadow_6889_10650" mode="normal" result="shape"></feBlend></filter><filter id="b__AVk6EuKY" color-interpolation-filters="sRGB" filterUnits="userSpaceOnUse" height="240.088" width="410.801" x="113.792" y="220.338"><feFlood flood-opacity="0" result="BackgroundImageFix"></feFlood><feBlend in="SourceGraphic" in2="BackgroundImageFix" mode="normal" result="shape"></feBlend><feGaussianBlur result="effect1_foregroundBlur_6889_10650" stdDeviation="2.28133"></feGaussianBlur></filter><filter id="c__AVk6EuKY" color-interpolation-filters="sRGB" filterUnits="userSpaceOnUse" height="32.2161" width="434.901" x="113.504" y="182.18"><feFlood flood-opacity="0" result="BackgroundImageFix"></feFlood><feBlend in="SourceGraphic" in2="BackgroundImageFix" mode="normal" result="shape"></feBlend><feGaussianBlur result="effect1_foregroundBlur_6889_10650" stdDeviation="2.28133"></feGaussianBlur></filter><filter id="d__AVk6EuKY" color-interpolation-filters="sRGB" filterUnits="userSpaceOnUse" height="34.9612" width="195.387" x="299.415" y="584.799"><feFlood flood-opacity="0" result="BackgroundImageFix"></feFlood><feBlend in="SourceGraphic" in2="BackgroundImageFix" mode="normal" result="shape"></feBlend><feGaussianBlur result="effect1_foregroundBlur_6889_10650" stdDeviation="1.711"></feGaussianBlur></filter><filter id="e__AVk6EuKY" color-interpolation-filters="sRGB" filterUnits="userSpaceOnUse" height="415" width="407.217" x="60.936" y="213.44"><feFlood flood-opacity="0" result="BackgroundImageFix"></feFlood><feColorMatrix in="SourceAlpha" result="hardAlpha" type="matrix" values="0 0 0 0 0 0 0 0 0 0 0 0 0 0 0 0 0 0 127 0"></feColorMatrix><feOffset dy="4.56266"></feOffset><feGaussianBlur stdDeviation="2.85166"></feGaussianBlur><feColorMatrix type="matrix" values="0 0 0 0 0.278431 0 0 0 0 0.403922 0 0 0 0 0.533333 0 0 0 0.04 0"></feColorMatrix><feBlend in2="BackgroundImageFix" mode="normal" result="effect1_dropShadow_6889_10650"></feBlend><feColorMatrix in="SourceAlpha" result="hardAlpha" type="matrix" values="0 0 0 0 0 0 0 0 0 0 0 0 0 0 0 0 0 0 127 0"></feColorMatrix><feOffset dy="11.4066"></feOffset><feGaussianBlur stdDeviation="8.55499"></feGaussianBlur><feColorMatrix type="matrix" values="0 0 0 0 0.278431 0 0 0 0 0.403922 0 0 0 0 0.533333 0 0 0 0.04 0"></feColorMatrix><feBlend in2="effect1_dropShadow_6889_10650" mode="normal" result="effect2_dropShadow_6889_10650"></feBlend><feColorMatrix in="SourceAlpha" result="hardAlpha" type="matrix" values="0 0 0 0 0 0 0 0 0 0 0 0 0 0 0 0 0 0 127 0"></feColorMatrix><feOffset dy="45.6266"></feOffset><feGaussianBlur stdDeviation="28.5166"></feGaussianBlur><feColorMatrix type="matrix" values="0 0 0 0 0.278431 0 0 0 0 0.403922 0 0 0 0 0.533333 0 0 0 0.1 0"></feColorMatrix><feBlend in2="effect2_dropShadow_6889_10650" mode="normal" result="effect3_dropShadow_6889_10650"></feBlend><feBlend in="SourceGraphic" in2="effect3_dropShadow_6889_10650" mode="normal" result="shape"></feBlend></filter><filter id="f__AVk6EuKY" color-interpolation-filters="sRGB" filterUnits="userSpaceOnUse" height="62.7535" width="261.519" x="136.045" y="269.198"><feFlood flood-opacity="0" result="BackgroundImageFix"></feFlood><feColorMatrix in="SourceAlpha" result="hardAlpha" type="matrix" values="0 0 0 0 0 0 0 0 0 0 0 0 0 0 0 0 0 0 127 0"></feColorMatrix><feOffset dy=".753141"></feOffset><feGaussianBlur stdDeviation="2.25942"></feGaussianBlur><feComposite in2="hardAlpha" operator="out"></feComposite><feColorMatrix type="matrix" values="0 0 0 0 0 0 0 0 0 0 0 0 0 0 0 0 0 0 0.1 0"></feColorMatrix><feBlend in2="BackgroundImageFix" mode="normal" result="effect1_dropShadow_6889_10650"></feBlend><feBlend in="SourceGraphic" in2="effect1_dropShadow_6889_10650" mode="normal" result="shape"></feBlend></filter><filter id="g__AVk6EuKY" color-interpolation-filters="sRGB" filterUnits="userSpaceOnUse" height="91.2301" width="261.519" x="136.045" y="331.951"><feFlood flood-opacity="0" result="BackgroundImageFix"></feFlood><feColorMatrix in="SourceAlpha" result="hardAlpha" type="matrix" values="0 0 0 0 0 0 0 0 0 0 0 0 0 0 0 0 0 0 127 0"></feColorMatrix><feOffset dy=".753141"></feOffset><feGaussianBlur stdDeviation="2.25942"></feGaussianBlur><feComposite in2="hardAlpha" operator="out"></feComposite><feColorMatrix type="matrix" values="0 0 0 0 0 0 0 0 0 0 0 0 0 0 0 0 0 0 0.1 0"></feColorMatrix><feBlend in2="BackgroundImageFix" mode="normal" result="effect1_dropShadow_6889_10650"></feBlend><feBlend in="SourceGraphic" in2="effect1_dropShadow_6889_10650" mode="normal" result="shape"></feBlend></filter><filter id="h__AVk6EuKY" color-interpolation-filters="sRGB" filterUnits="userSpaceOnUse" height="62.7535" width="261.519" x="136.045" y="423.182"><feFlood flood-opacity="0" result="BackgroundImageFix"></feFlood><feColorMatrix in="SourceAlpha" result="hardAlpha" type="matrix" values="0 0 0 0 0 0 0 0 0 0 0 0 0 0 0 0 0 0 127 0"></feColorMatrix><feOffset dy=".753141"></feOffset><feGaussianBlur stdDeviation="2.25942"></feGaussianBlur><feComposite in2="hardAlpha" operator="out"></feComposite><feColorMatrix type="matrix" values="0 0 0 0 0 0 0 0 0 0 0 0 0 0 0 0 0 0 0.1 0"></feColorMatrix><feBlend in2="BackgroundImageFix" mode="normal" result="effect1_dropShadow_6889_10650"></feBlend><feBlend in="SourceGraphic" in2="effect1_dropShadow_6889_10650" mode="normal" result="shape"></feBlend></filter><linearGradient id="i__AVk6EuKY"><stop offset="0" stop-color="#fff"></stop><stop offset="1" stop-color="#f0f3f8"></stop></linearGradient><linearGradient id="j__AVk6EuKY" gradientUnits="userSpaceOnUse" x1="248" x2="476.861" xlink:href="#i__AVk6EuKY" y1="56" y2="564.684"></linearGradient><linearGradient id="k__AVk6EuKY" gradientUnits="userSpaceOnUse" x1="325" x2="325" y1="70" y2="669.345"><stop offset="0" stop-color="#e7edf6"></stop><stop offset="1" stop-color="#fff"></stop></linearGradient><linearGradient id="l__AVk6EuKY" gradientUnits="userSpaceOnUse" x1="106.819" x2="594.697" xlink:href="#i__AVk6EuKY" y1="133.195" y2="507.988"></linearGradient><linearGradient id="m__AVk6EuKY" gradientUnits="userSpaceOnUse" x1="325" x2="325.42" y1="148" y2="226.927"><stop offset=".275" stop-color="#e7edf6"></stop><stop offset=".2751" stop-color="#fcfdff"></stop></linearGradient><clipPath id="n__AVk6EuKY"><path d="m0 0h650v650h-650z"></path></clipPath><clipPath id="o__AVk6EuKY"><rect height="489.345" rx="23.4886" width="446" x="102" y="148"></rect></clipPath><clipPath id="p__AVk6EuKY"><rect height="36.1508" rx="4.01675" width="98.4104" x="118.066" y="584.204"></rect></clipPath><clipPath id="q__AVk6EuKY"><path d="m272.711 592.237h20.0838v20.0838h-20.0838z"></path></clipPath><clipPath id="r__AVk6EuKY"><path d="m246.379 545.58h20.0838v20.0838h-20.0838z"></path></clipPath><clipPath id="s__AVk6EuKY"><path d="m393.542 545.58h20.0838v20.0838h-20.0838z"></path></clipPath><clipPath id="t__AVk6EuKY"><path d="m510.697 547.589h16.067v16.067h-16.067z"></path></clipPath><clipPath id="u__AVk6EuKY"><rect height="53.7155" rx="6.02513" width="257" x="136.044" y="272.964"></rect></clipPath><clipPath id="v__AVk6EuKY"><rect height="82.1926" rx="6.02513" width="257" x="136.044" y="335.717"></rect></clipPath><clipPath id="w__AVk6EuKY"><rect height="53.7155" rx="6.02513" width="257" x="136.044" y="426.947"></rect></clipPath><mask id="x__AVk6EuKY" fill="#fff"><path d="m140.563 272.964h246.457c3.327 0 6.025 2.697 6.025 6.025v41.665c0 3.328-2.698 6.025-6.025 6.025h-246.457z" fill="#fff"></path></mask><mask id="y__AVk6EuKY" fill="#fff"><path d="m140.563 335.717h246.457c3.327 0 6.025 2.697 6.025 6.025v70.142c0 3.328-2.698 6.025-6.025 6.025h-246.457z" fill="#fff"></path></mask><mask id="z__AVk6EuKY" fill="#fff"><path d="m140.563 426.947h246.457c3.327 0 6.025 2.698 6.025 6.025v41.666c0 3.327-2.698 6.025-6.025 6.025h-246.457z" fill="#fff"></path></mask><g clip-path="url(#n__AVk6EuKY)"><g filter="url(#a__AVk6EuKY)"><path d="m70 94c0-13.2549 10.7452-24 24-24h462c13.255 0 24 10.7452 24 24v575.345h-510z" fill="url(#j__AVk6EuKY)"></path><path d="m556 65c16.016 0 29 12.9837 29 29v580.346h-520v-580.346c0-16.0163 12.9838-29 29-29z" stroke="url(#k__AVk6EuKY)" stroke-opacity=".5" stroke-width="10"></path><rect fill="#e6f0ff" height="30" rx="15" width="65.8182" x="102" y="94"></rect><text fill="#004eba" font-family="Gilroy" font-size="16.3636" font-weight="600" letter-spacing="0"><tspan x="112.96" y="114.588">Share</tspan></text><text fill="#0b3558" font-family="Gilroy" font-size="20" font-weight="600" letter-spacing="0em"><tspan x="179.818" y="115.83">Offer time slots via email</tspan></text><g clip-path="url(#o__AVk6EuKY)"><rect fill="url(#l__AVk6EuKY)" height="489.345" rx="23.4886" width="446" x="102" y="148"></rect><rect fill="url(#m__AVk6EuKY)" height="489.345" rx="23.4886" width="446" x="102" y="148"></rect><g fill="#e7edf6" filter="url(#b__AVk6EuKY)"><rect height="10.0419" rx="5.02094" width="90.3769" x="118.355" y="224.9"></rect><rect height="10.0419" rx="5.02094" width="376.57" x="118.355" y="246.992"></rect><rect height="10.0419" rx="5.02094" width="330.793" x="118.355" y="269.085"></rect><rect height="10.0419" rx="5.02094" width="359.309" x="118.355" y="291.177"></rect><rect height="10.0419" rx="5.02094" width="313.683" x="118.355" y="313.269"></rect><rect height="10.0419" rx="5.02094" width="285.166" x="118.355" y="335.361"></rect><rect height="10.0419" rx="5.02094" width="330.793" x="118.355" y="379.545"></rect><rect height="10.0419" rx="5.02094" width="359.309" x="118.355" y="401.638"></rect><rect height="10.0419" rx="5.02094" width="285.166" x="118.355" y="423.729"></rect><rect height="10.0419" rx="5.02094" width="313.683" x="118.355" y="445.821"></rect></g><g filter="url(#c__AVk6EuKY)"><rect fill="#e7edf6" height="10.0419" rx="5.02094" width="140.586" x="118.066" y="186.742"></rect><path d="m118.066 209.331h425.776" stroke="#e7edf6" stroke-width="1.00419"></path></g><g clip-path="url(#p__AVk6EuKY)"><rect fill="#1a73e8" height="36.1508" rx="4.01675" width="98.4104" x="118.066" y="584.204"></rect><path d="m190.368 584.204h.593785v36.1508h-.593785z" fill="#185abc"></path><g fill="#fff"><text font-family="Gilroy" font-size="14.0586" font-weight="500" letter-spacing="-.01em"><tspan x="137.146" y="606.529">Send</tspan></text><path d="m201.08 600.271 3.347 3.347 3.347-3.347z"></path></g></g><rect fill="#e6f0ff" height="36.1508" rx="4.01675" width="66.2764" x="228.527" y="584.204"></rect><path d="m269.698 590.229h1.00419v24.1005h-1.00419z" fill="#d4e0ed"></path><path d="m254.086 605.259c-.637.566-1.432 1.271-2.879 1.271h-.862c-1.046 0-1.994-.378-2.676-1.068-.664-.671-1.031-1.593-1.031-2.594v-1.181c0-1.001.367-1.919 1.031-2.594.678-.689 1.63-1.068 2.676-1.068h.862c1.447 0 2.242.705 2.879 1.271.663.584 1.233 1.094 2.755 1.094.236 0 .468-.018.693-.056 0-.004-.004-.007-.004-.015-.089-.225-.198-.446-.318-.66l-1.02-1.761c-.933-1.62-2.661-2.617-4.528-2.617h-2.035c-1.867 0-3.595.997-4.528 2.617l-1.02 1.761c-.933 1.62-.933 3.61 0 5.229l1.02 1.762c.933 1.619 2.661 2.616 4.528 2.616h2.035c1.867 0 3.595-.997 4.528-2.616l1.02-1.762c.124-.213.229-.434.318-.656 0-.003.004-.007.004-.015-.225-.037-.457-.056-.693-.056-1.522.004-2.092.51-2.755 1.098z" fill="#006bff"></path><path d="m251.211 599.097h-.862c-1.589 0-2.635 1.135-2.635 2.59v1.181c0 1.454 1.046 2.59 2.635 2.59h.862c2.317 0 2.137-2.362 5.634-2.362.334 0 .667.03.989.09.105-.6.105-1.214 0-1.818-.322.06-.652.09-.989.09-3.501 0-3.317-2.361-5.634-2.361z" fill="#006bff"></path><path d="m259.84 604.048c-.596-.442-1.282-.727-2.01-.862 0 .008-.003.012-.003.019-.064.345-.162.686-.293 1.02.615.097 1.177.329 1.661.682 0 .004-.004.011-.004.015-.277.903-.697 1.758-1.248 2.534-.544.764-1.2 1.439-1.949 2.005-1.56 1.17-3.419 1.788-5.375 1.788-1.211 0-2.388-.236-3.49-.705-1.068-.453-2.028-1.098-2.853-1.923-.824-.824-1.469-1.784-1.923-2.852-.468-1.106-.704-2.279-.704-3.49s.236-2.388.704-3.49c.454-1.068 1.099-2.027 1.923-2.852.825-.825 1.785-1.469 2.853-1.923 1.106-.469 2.279-.705 3.49-.705 1.956 0 3.815.619 5.375 1.788.749.563 1.409 1.237 1.949 2.006.551.776.971 1.626 1.248 2.534 0 .007.004.011.004.015-.484.352-1.05.584-1.661.682.131.33.229.671.293 1.019 0 .004 0 .012.003.015.728-.135 1.414-.423 2.01-.862.573-.423.461-.903.374-1.188-1.263-4.101-5.082-7.081-9.595-7.081-5.544 0-10.042 4.495-10.042 10.042 0 5.548 4.494 10.042 10.042 10.042 4.516 0 8.336-2.98 9.595-7.081.09-.288.199-.768-.374-1.192z" fill="#006bff"></path><path d="m257.539 600.333c-.225.038-.458.057-.694.057-1.522 0-2.095-.506-2.755-1.095-.637-.566-1.432-1.271-2.879-1.271h-.862c-1.046 0-1.994.379-2.676 1.069-.664.671-1.031 1.593-1.031 2.594v1.18c0 1.001.367 1.919 1.031 2.594.678.69 1.63 1.068 2.676 1.068h.862c1.447 0 2.242-.704 2.879-1.27.664-.585 1.233-1.095 2.755-1.095.236 0 .469.019.694.056.131-.329.228-.67.292-1.019 0-.008.004-.011.004-.019-.323-.06-.652-.09-.99-.09-3.497 0-3.317 2.362-5.634 2.362h-.862c-1.589 0-2.635-1.136-2.635-2.59v-1.177c0-1.455 1.046-2.591 2.635-2.591h.862c2.317 0 2.137 2.362 5.634 2.362.334 0 .667-.03.99-.09 0-.004 0-.011-.004-.015-.064-.349-.161-.69-.292-1.02z" fill="#0ae8f0"></path><path d="m257.539 600.333c-.225.038-.458.057-.694.057-1.522 0-2.095-.506-2.755-1.095-.637-.566-1.432-1.271-2.879-1.271h-.862c-1.046 0-1.994.379-2.676 1.069-.664.671-1.031 1.593-1.031 2.594v1.18c0 1.001.367 1.919 1.031 2.594.678.69 1.63 1.068 2.676 1.068h.862c1.447 0 2.242-.704 2.879-1.27.664-.585 1.233-1.095 2.755-1.095.236 0 .469.019.694.056.131-.329.228-.67.292-1.019 0-.008.004-.011.004-.019-.323-.06-.652-.09-.99-.09-3.497 0-3.317 2.362-5.634 2.362h-.862c-1.589 0-2.635-1.136-2.635-2.59v-1.177c0-1.455 1.046-2.591 2.635-2.591h.862c2.317 0 2.137 2.362 5.634 2.362.334 0 .667-.03.99-.09 0-.004 0-.011-.004-.015-.064-.349-.161-.69-.292-1.02z" fill="#0ae8f0"></path><g clip-path="url(#q__AVk6EuKY)"><path d="m278.569 603.954 4.184-4.184 4.185 4.184z" fill="#0b3558"></path></g><g fill="#476788" filter="url(#d__AVk6EuKY)"><path d="m310.394 606.823v1.841h12.887v-1.841zm4.142-3.866h4.602l.829 2.025h1.933l-4.373-10.126h-1.38l-4.373 10.126h1.933zm2.301-6.278 1.721 4.621h-3.442z" opacity=".5"></path><path d="m355.081 596.706v10.586c0 2.034-1.647 3.682-3.682 3.682-2.034 0-3.682-1.648-3.682-3.682v-11.506c0-1.271 1.031-2.302 2.301-2.302 1.271 0 2.302 1.031 2.302 2.302v9.665c0 .506-.415.92-.921.92s-.92-.414-.92-.92v-8.745h-1.381v8.745c0 1.27 1.031 2.301 2.301 2.301 1.271 0 2.301-1.031 2.301-2.301v-9.665c0-2.035-1.647-3.682-3.682-3.682-2.034 0-3.682 1.647-3.682 3.682v11.506c0 2.798 2.265 5.063 5.063 5.063 2.799 0 5.063-2.265 5.063-5.063v-10.586z" opacity=".5"></path><path d="m375.568 602.229c0-1.574 1.279-2.853 2.853-2.853h3.682v-1.749h-3.682c-2.54 0-4.602 2.062-4.602 4.602 0 2.541 2.062 4.603 4.602 4.603h3.682v-1.749h-3.682c-1.574 0-2.853-1.279-2.853-2.854zm3.774.921h7.364v-1.841h-7.364zm8.284-5.523h-3.682v1.749h3.682c1.574 0 2.854 1.279 2.854 2.853 0 1.575-1.28 2.854-2.854 2.854h-3.682v1.749h3.682c2.541 0 4.603-2.062 4.603-4.603 0-2.54-2.062-4.602-4.603-4.602z" opacity=".5"></path><path d="m415.1 593.024c-5.081 0-9.196 4.124-9.196 9.205 0 5.082 4.115 9.206 9.196 9.206 5.091 0 9.214-4.124 9.214-9.206 0-5.081-4.123-9.205-9.214-9.205zm.009 16.57c-4.068 0-7.364-3.296-7.364-7.365 0-4.068 3.296-7.364 7.364-7.364 4.069 0 7.364 3.296 7.364 7.364 0 4.069-3.295 7.365-7.364 7.365zm3.222-8.285c.764 0 1.381-.617 1.381-1.381s-.617-1.381-1.381-1.381-1.381.617-1.381 1.381.617 1.381 1.381 1.381zm-6.443 0c.764 0 1.38-.617 1.38-1.381s-.616-1.381-1.38-1.381-1.381.617-1.381 1.381.617 1.381 1.381 1.381zm3.221 5.983c2.145 0 3.968-1.344 4.704-3.222h-9.407c.736 1.878 2.559 3.222 4.703 3.222z" opacity=".5"></path><path d="m449.349 593.485c.653 0 1.261.35 1.592.911l5.836 10.043c.332.571.34 1.271.009 1.841l-2.172 3.775c-.322.57-.93.92-1.593.92h-5.827l-.008-.034v.034h-5.828c-.662 0-1.27-.35-1.592-.92l-2.172-3.775c-.332-.57-.323-1.27.009-1.841l5.835-10.043c.332-.561.94-.911 1.593-.911zm-2.163 1.841h-2.155l-5.836 10.043 2.163 3.765h11.663l2.164-3.765-5.836-10.043h-2.155l-.008-.033zm.828 2.992 4.215 7.345-.671 1.17h-8.736l-.672-1.17 4.216-7.345zm-.828 2.245-2.523 4.428h5.054l-2.523-4.428-.008-.04z" opacity=".5"></path><path d="m487.564 608.673v-12.887c0-1.012-.829-1.841-1.841-1.841h-12.887c-1.013 0-1.841.829-1.841 1.841v12.887c0 1.013.828 1.841 1.841 1.841h12.887c1.012 0 1.841-.828 1.841-1.841zm-11.507-5.062 2.302 2.77 3.221-4.151 4.143 5.523h-12.887z" opacity=".5"></path></g><rect fill="#e6f0ff" height="42.8971" rx="4.01675" width="414.716" x="118.074" y="534.174"></rect><rect fill="#fff" fill-opacity=".8" height="29.2091" rx="3.01256" width="109.226" x="124.099" y="541.018"></rect><rect height="14.7704" rx="1.67365" stroke="#004eba" stroke-width="1.67365" width="16.4017" x="130.502" y="548.426"></rect><g fill="#004eba"><path d="m130.418 548.342h16.5696v1.50632h-16.5696z"></path><path d="m132.177 552.287h9.53978v1.40949h-9.53978z"></path><path d="m132.177 555.105h13.0544v1.40949h-13.0544z"></path><path d="m139.707 559.991h5.52303v1.40949h-5.52303z"></path></g><text fill="#0a2540" font-family="Gilroy" font-size="14.0586" font-weight="500" letter-spacing="0em"><tspan x="152.762" y="560.409">Event types</tspan></text><g clip-path="url(#r__AVk6EuKY)"><path clip-rule="evenodd" d="m259.325 547.795c-.032-.009-.321-.092-1.148.735l-1.474 1.474 5.899 5.899 1.475-1.474c.827-.827.743-1.116.734-1.147v-.001c-.016-.053-.063-.139-.204-.288-.069-.071-.147-.145-.242-.233l-.028-.026c-.084-.078-.18-.167-.273-.26h.001c-.306-.301-.464-.357-.513-.369-.036-.008-.062-.011-.249.047l-.029.009c-.18.057-.513.162-.917.082-.423-.083-.819-.339-1.237-.751l.489-.495-.495.489c-.412-.418-.668-.814-.751-1.237-.08-.404.026-.737.082-.917l.01-.03c.058-.186.055-.213.046-.249-.011-.05-.067-.208-.367-.513l-.002.002c-.093-.093-.182-.189-.26-.273l-.026-.028c-.088-.095-.162-.173-.233-.242-.148-.141-.235-.188-.288-.204zm1.738-.289c-.056-.058-.111-.118-.173-.184l-.025-.027c-.087-.094-.186-.2-.291-.3-.205-.197-.487-.427-.863-.535-.827-.24-1.639.209-2.517 1.086l-8.848 8.849c-.878.877-1.326 1.689-1.087 2.517.109.375.339.657.535.863.1.104.206.204.3.29l.028.026c.074.069.141.131.205.194.429.431.858.688 1.324.745.444.055.81-.095 1.019-.18l.022-.009c.244-.099.303-.112.361-.106.033.003.183.025.488.33.306.306.329.456.332.489.006.057-.007.115-.105.357l-.009.023c-.085.208-.233.572-.18 1.015.056.473.318.91.759 1.351l.001-.002c.057.058.114.119.176.186v.001l.026.027c.087.094.186.2.291.3.205.196.487.426.862.535.828.24 1.64-.209 2.517-1.087l8.849-8.848c.877-.878 1.326-1.69 1.086-2.517-.108-.375-.338-.658-.535-.863-.1-.105-.206-.204-.3-.291l-.027-.025c-.067-.062-.127-.118-.185-.174-.419-.426-.815-.694-1.234-.791-.425-.098-.769.009-.96.068l-.015.005c-.203.063-.228.062-.265.055-.043-.008-.202-.056-.523-.371-.319-.324-.366-.484-.375-.526-.007-.037-.008-.063.055-.266l.005-.015c.06-.192.167-.535.069-.959-.096-.421-.365-.817-.791-1.238zm-8.539 12.576c.432.431.687.864.733 1.337.041.424-.104.78-.186.979l-.014.035c-.094.231-.105.293-.097.352.005.044.036.193.312.482l.002-.002c.092.093.181.189.259.272l.026.029c.088.094.162.173.234.241.148.142.234.189.288.204.031.01.32.093 1.147-.734l6.391-6.39-5.899-5.899-6.391 6.39c-.827.827-.743 1.116-.734 1.147.015.054.062.14.204.288.068.072.147.146.241.234l.029.026c.07.065.148.138.226.214h.001l.01.011c.012.011.023.023.035.034.289.282.438.313.479.318.057.007.117-.003.349-.097l.035-.014c.2-.082.555-.229.979-.189.475.045.909.299 1.341.732z" fill="#004eba" fill-rule="evenodd"></path></g><text fill="#0a2540" font-family="Gilroy" font-size="14.0586" font-weight="500" letter-spacing="0em"><tspan x="272.488" y="560.409">One-off meeting</tspan></text><g clip-path="url(#s__AVk6EuKY)" fill="#004eba"><path d="m411.618 549.597h-13.449v2.762h13.449z"></path><path d="m407.801 554.259h-9.632v2.762h9.632z"></path><path d="m402.894 558.748h-4.725v2.762h4.725z"></path><path d="m394.989 552.346c.8 0 1.447-.616 1.447-1.375s-.647-1.374-1.447-1.374c-.799 0-1.447.615-1.447 1.374s.648 1.375 1.447 1.375z"></path><path d="m394.989 556.927c.8 0 1.447-.616 1.447-1.375s-.647-1.374-1.447-1.374c-.799 0-1.447.615-1.447 1.374s.648 1.375 1.447 1.375z"></path><path d="m394.989 561.509c.8 0 1.447-.615 1.447-1.375 0-.759-.647-1.374-1.447-1.374-.799 0-1.447.615-1.447 1.374 0 .76.648 1.375 1.447 1.375z"></path></g><text fill="#0a2540" font-family="Gilroy" font-size="14.0586" font-weight="500" letter-spacing="0em"><tspan x="417.643" y="560.409">Meeting poll</tspan></text><g clip-path="url(#t__AVk6EuKY)"><path d="m523.417 551.879-.944-.943-3.742 3.742-3.743-3.742-.944.943 3.743 3.743-3.743 3.742.944.944 3.743-3.742 3.742 3.742.944-.944-3.742-3.742z" fill="#0b3558"></path></g><g filter="url(#e__AVk6EuKY)"><rect fill="#fff" height="300.934" rx="18.5266" width="293.151" x="117.969" y="224.847"></rect><rect height="299.776" rx="17.9477" stroke="#d4e0ed" stroke-width="1.15792" width="291.993" x="118.548" y="225.426"></rect><text fill="#476788" font-family="Gilroy" font-size="14.0586" font-weight="600" letter-spacing="0em"><tspan x="136.044" y="255.715">Recently shared event types</tspan></text><g clip-path="url(#u__AVk6EuKY)"><path d="m136.044 272.964h4.51885v53.7155h-4.51885z" fill="#17e886"></path><g filter="url(#f__AVk6EuKY)"><path d="m140.563 272.964h246.457c3.327 0 6.025 2.697 6.025 6.025v41.665c0 3.328-2.698 6.025-6.025 6.025h-246.457z" fill="#fff" shape-rendering="crispEdges"></path><path d="m140.563 272.211h246.457c3.743 0 6.778 3.034 6.778 6.778h-1.506c0-2.912-2.361-5.272-5.272-5.272h-246.457zm253.235 48.443c0 3.744-3.035 6.779-6.778 6.779h-246.457v-1.507h246.457c2.911 0 5.272-2.36 5.272-5.272zm-253.235 6.025v-53.715zm246.457-54.468c3.743 0 6.778 3.034 6.778 6.778v41.665c0 3.744-3.035 6.779-6.778 6.779v-1.507c2.911 0 5.272-2.36 5.272-5.272v-41.665c0-2.912-2.361-5.272-5.272-5.272z" fill="#d4e0ed" mask="url(#x__AVk6EuKY)"></path><path d="m0 0h231.393v35.6402h-231.393z" fill="#fff" transform="translate(152.614 282.001)"></path><path d="m0 0h165.117v35.6402h-165.117z" fill="#fff" transform="translate(152.614 282.001)"></path><text fill="#0b3558" font-family="Gilroy" font-size="15.0628" font-weight="bold" letter-spacing="0em"><tspan x="152.614" y="297.645">Client onboarding</tspan></text><rect fill="#e7edf6" height="10.0419" rx="5.02094" width="90.3769" x="152.614" y="307.6"></rect></g></g><g clip-path="url(#v__AVk6EuKY)"><path d="m136.044 335.717h4.51885v82.1926h-4.51885z" fill="#8247f5"></path><g filter="url(#g__AVk6EuKY)"><path d="m140.563 335.717h246.457c3.327 0 6.025 2.697 6.025 6.025v70.142c0 3.328-2.698 6.025-6.025 6.025h-246.457z" fill="#fff" shape-rendering="crispEdges"></path><path d="m140.563 334.964h246.457c3.743 0 6.778 3.034 6.778 6.778h-1.506c0-2.912-2.361-5.272-5.272-5.272h-246.457zm253.235 76.92c0 3.744-3.035 6.779-6.778 6.779h-246.457v-1.507h246.457c2.911 0 5.272-2.36 5.272-5.272zm-253.235 6.025v-82.192zm246.457-82.945c3.743 0 6.778 3.034 6.778 6.778v70.142c0 3.744-3.035 6.779-6.778 6.779v-1.507c2.911 0 5.272-2.36 5.272-5.272v-70.142c0-2.912-2.361-5.272-5.272-5.272z" fill="#d4e0ed" mask="url(#y__AVk6EuKY)"></path><path d="m0 0h231.393v36h-231.393z" fill="#fff" transform="translate(152.614 344.754)"></path><path d="m0 0h165.117v36h-165.117z" fill="#fff" transform="translate(152.614 344.754)"></path><g font-family="Gilroy" letter-spacing="0em"><text fill="#0b3558" font-size="15.0628" font-weight="bold"><tspan x="152.614" y="360.398">Client check-in</tspan></text><text fill="#476788" font-size="10.544" font-weight="500"><tspan x="152.614" y="376.844">30 min</tspan></text><text fill="#476788" font-size="10.544" font-weight="500"><tspan x="191.639" y="376.844">One-on-one</tspan></text><text fill="#006bff" font-size="12.0503" font-weight="500"><tspan x="152.614" y="403.908">Insert link</tspan></text></g><path d="m216.664 392.805h1.00419v16.067h-1.00419z" fill="#d4e0ed"></path><text fill="#006bff" font-family="Gilroy" font-size="12.0503" font-weight="500" letter-spacing="0em"><tspan x="229.718" y="403.908">Offer time slots</tspan></text></g></g><g clip-path="url(#w__AVk6EuKY)"><path d="m136.044 426.947h4.51885v53.7155h-4.51885z" fill="#004eba"></path><g filter="url(#h__AVk6EuKY)"><path d="m140.563 426.947h246.457c3.327 0 6.025 2.698 6.025 6.025v41.666c0 3.327-2.698 6.025-6.025 6.025h-246.457z" fill="#fff" shape-rendering="crispEdges"></path><path d="m140.563 426.194h246.457c3.743 0 6.778 3.035 6.778 6.778h-1.506c0-2.911-2.361-5.272-5.272-5.272h-246.457zm253.235 48.444c0 3.743-3.035 6.778-6.778 6.778h-246.457v-1.506h246.457c2.911 0 5.272-2.361 5.272-5.272zm-253.235 6.025v-53.716zm246.457-54.469c3.743 0 6.778 3.035 6.778 6.778v41.666c0 3.743-3.035 6.778-6.778 6.778v-1.506c2.911 0 5.272-2.361 5.272-5.272v-41.666c0-2.911-2.361-5.272-5.272-5.272z" fill="#d4e0ed" mask="url(#z__AVk6EuKY)"></path><path d="m0 0h231.393v35.6402h-231.393z" fill="#fff" transform="translate(152.614 435.984)"></path><path d="m0 0h180v35.6402h-180z" fill="#fff" transform="translate(152.614 435.984)"></path><text fill="#0b3558" font-family="Gilroy" font-size="15.0628" font-weight="bold" letter-spacing="0em"><tspan x="152.614" y="451.628">Quarterly business review</tspan></text><rect fill="#e7edf6" height="10.0419" rx="5.02094" width="103.461" x="152.614" y="461.583"></rect></g></g><text style="fill: rgb(11, 53, 88); font-family: Gilroy; font-size: 12.0503px; font-weight: 500; letter-spacing: 0em; text-decoration: underline;"><tspan x="136.044" y="505.316">View all event types</tspan></text></g></g><rect height="490.345" rx="23.9886" stroke="#d4e0ed" width="447" x="101.5" y="147.5"></rect></g></g></svg>