<svg fill="none" height="650" viewBox="0 0 650 650" width="650" xmlns="http://www.w3.org/2000/svg" xmlns:xlink="http://www.w3.org/1999/xlink" data-testid="image" aria-label="Customize your event types"><title>Customize your event types</title><filter id="a__libVJJ76" color-interpolation-filters="sRGB" filterUnits="userSpaceOnUse" height="794" width="631" x="8.71338" y="42"><feFlood flood-opacity="0" result="BackgroundImageFix"></feFlood><feColorMatrix in="SourceAlpha" result="hardAlpha" type="matrix" values="0 0 0 0 0 0 0 0 0 0 0 0 0 0 0 0 0 0 127 0"></feColorMatrix><feOffset dy="4"></feOffset><feGaussianBlur stdDeviation="2.5"></feGaussianBlur><feColorMatrix type="matrix" values="0 0 0 0 0.278431 0 0 0 0 0.403922 0 0 0 0 0.533333 0 0 0 0.04 0"></feColorMatrix><feBlend in2="BackgroundImageFix" mode="normal" result="effect1_dropShadow_6889_10589"></feBlend><feColorMatrix in="SourceAlpha" result="hardAlpha" type="matrix" values="0 0 0 0 0 0 0 0 0 0 0 0 0 0 0 0 0 0 127 0"></feColorMatrix><feOffset dy="10"></feOffset><feGaussianBlur stdDeviation="7.5"></feGaussianBlur><feColorMatrix type="matrix" values="0 0 0 0 0.278431 0 0 0 0 0.403922 0 0 0 0 0.533333 0 0 0 0.04 0"></feColorMatrix><feBlend in2="effect1_dropShadow_6889_10589" mode="normal" result="effect2_dropShadow_6889_10589"></feBlend><feColorMatrix in="SourceAlpha" result="hardAlpha" type="matrix" values="0 0 0 0 0 0 0 0 0 0 0 0 0 0 0 0 0 0 127 0"></feColorMatrix><feOffset dy="40"></feOffset><feGaussianBlur stdDeviation="25"></feGaussianBlur><feColorMatrix type="matrix" values="0 0 0 0 0.278431 0 0 0 0 0.403922 0 0 0 0 0.533333 0 0 0 0.1 0"></feColorMatrix><feBlend in2="effect2_dropShadow_6889_10589" mode="normal" result="effect3_dropShadow_6889_10589"></feBlend><feBlend in="SourceGraphic" in2="effect3_dropShadow_6889_10589" mode="normal" result="shape"></feBlend></filter><filter id="b__libVJJ76" color-interpolation-filters="sRGB" filterUnits="userSpaceOnUse" height="626" width="509" x="69.7134" y="119"><feFlood flood-opacity="0" result="BackgroundImageFix"></feFlood><feColorMatrix in="SourceAlpha" result="hardAlpha" type="matrix" values="0 0 0 0 0 0 0 0 0 0 0 0 0 0 0 0 0 0 127 0"></feColorMatrix><feMorphology in="SourceAlpha" operator="dilate" radius="10" result="effect1_dropShadow_6889_10589"></feMorphology><feOffset dy="10"></feOffset><feGaussianBlur stdDeviation="10"></feGaussianBlur><feComposite in2="hardAlpha" operator="out"></feComposite><feColorMatrix type="matrix" values="0 0 0 0 0.278431 0 0 0 0 0.403922 0 0 0 0 0.533333 0 0 0 0.04 0"></feColorMatrix><feBlend in2="BackgroundImageFix" mode="normal" result="effect1_dropShadow_6889_10589"></feBlend><feBlend in="SourceGraphic" in2="effect1_dropShadow_6889_10589" mode="normal" result="shape"></feBlend></filter><linearGradient id="c__libVJJ76" gradientUnits="userSpaceOnUse" x1="77.9832" x2="1101" y1="62" y2="481.333"><stop offset="0" stop-color="#fff"></stop><stop offset="1" stop-color="#f8f9fb"></stop></linearGradient><linearGradient id="d__libVJJ76" gradientUnits="userSpaceOnUse" x1="324.213" x2="324.213" y1="62" y2="736"><stop offset="0" stop-color="#fff"></stop><stop offset="1" stop-color="#fff"></stop></linearGradient><clipPath id="e__libVJJ76"><path d="m0 0h650v650h-650z"></path></clipPath><clipPath id="f__libVJJ76"><path d="m204.713 222h20v20h-20z"></path></clipPath><clipPath id="g__libVJJ76"><path d="m268.713 350h20v20h-20z"></path></clipPath><clipPath id="h__libVJJ76"><path d="m274.713 478h20v20h-20z"></path></clipPath><clipPath id="i__libVJJ76"><path d="m204.713 606h20v20h-20z"></path></clipPath><g clip-path="url(#e__libVJJ76)"><g filter="url(#a__libVJJ76)"><rect fill="url(#c__libVJJ76)" height="674" rx="24" width="511" x="68.7134" y="62"></rect><rect height="684" rx="29" stroke="url(#d__libVJJ76)" stroke-opacity=".5" stroke-width="10" width="521" x="63.7134" y="57"></rect><rect fill="#e6f0ff" height="30" rx="15" width="130.818" x="100.713" y="86"></rect><g fill="#004eba"><path clip-rule="evenodd" d="m114.866 100.381c.342.342.342.896 0 1.238l-.437.437c-.867.866-.867 2.271 0 3.138.866.866 2.271.866 3.137 0l.438-.438c.341-.342.895-.342 1.237 0s.342.896 0 1.238l-.437.437c-1.55 1.55-4.063 1.55-5.613 0s-1.55-4.063 0-5.612l.438-.438c.341-.342.895-.342 1.237 0z" fill-rule="evenodd"></path><path clip-rule="evenodd" d="m122.379 101.619c-.342-.342-.342-.896 0-1.238l.437-.4374c.867-.8664.867-2.2711 0-3.1375-.866-.8665-2.271-.8665-3.137 0l-.438.4375c-.342.3417-.896.3417-1.237 0-.342-.3417-.342-.8958 0-1.2375l.437-.4375c1.55-1.5498 4.063-1.5498 5.613 0 1.549 1.5499 1.549 4.0626 0 5.6124l-.438.438c-.342.341-.896.341-1.237 0z" fill-rule="evenodd"></path><path clip-rule="evenodd" d="m120.991 98.6311c.342.3417.342.8958 0 1.2375l-3.5 3.5004c-.342.341-.896.341-1.237 0-.342-.342-.342-.896 0-1.238l3.5-3.4999c.341-.3417.895-.3417 1.237 0z" fill-rule="evenodd"></path><text font-family="Gilroy" font-size="16.3636" font-weight="600" letter-spacing="0"><tspan x="132.097" y="106.588">Event types</tspan></text></g><text fill="#0b3558" font-family="Gilroy" font-size="20" font-weight="600" letter-spacing="0em"><tspan x="243.532" y="107.83">Ways to meet</tspan></text><g filter="url(#b__libVJJ76)"><path d="m100.713 156c0-8.837 7.164-16 16-16h415c8.837 0 16 7.163 16 16v532c0 8.837-7.163 16-16 16h-415c-8.836 0-16-7.163-16-16z" fill="#fff" shape-rendering="crispEdges"></path><path d="m531.713 139.5c9.113 0 16.5 7.387 16.5 16.5v532c0 9.113-7.387 16.5-16.5 16.5h-415c-9.112 0-16.5-7.387-16.5-16.5v-532c0-9.113 7.388-16.5 16.5-16.5z" shape-rendering="crispEdges" stroke="#d4e0ed"></path><path d="m132.713 184c0-6.627 5.373-12 12-12h359c6.628 0 12 5.373 12 12v92c0 6.627-5.372 12-12 12h-359c-6.627 0-12-5.373-12-12z" fill="#f4f8ff"></path><text fill="#006bff" font-family="Gilroy" font-size="20" font-weight="bold" letter-spacing="0em"><tspan x="148.713" y="208.83">One-on-one</tspan></text><g fill="#0b3558"><text font-family="Gilroy" font-size="17.5" font-weight="500" letter-spacing="0em"><tspan x="148.713" y="237.959">1 host</tspan></text><g clip-path="url(#f__libVJJ76)" clip-rule="evenodd" fill-rule="evenodd"><path d="m204.962 232c0-.414.336-.75.75-.75h18c.415 0 .75.336.75.75s-.335.75-.75.75h-18c-.414 0-.75-.336-.75-.75z"></path><path d="m218.183 226.47c.292-.293.767-.293 1.06 0l5 5c.293.293.293.767 0 1.06l-5 5c-.293.293-.768.293-1.06 0-.293-.293-.293-.767 0-1.06l4.469-4.47-4.469-4.47c-.293-.293-.293-.767 0-1.06z"></path></g><text font-family="Gilroy" font-size="17.5" font-weight="500" letter-spacing="0em"><tspan x="234.713" y="237.959">1 invitee</tspan></text></g><text fill="#476788" font-family="Gilroy" font-size="17.5" font-weight="500" letter-spacing="0em"><tspan x="148.713" y="265.959">Good for 1:1 check-ins, screening calls, etc.</tspan></text><path d="m132.713 312c0-6.627 5.373-12 12-12h359c6.628 0 12 5.373 12 12v92c0 6.627-5.372 12-12 12h-359c-6.627 0-12-5.373-12-12z" fill="#e8fdf3" fill-opacity=".6"></path><text fill="#0fa34b" font-family="Gilroy" font-size="20" font-weight="bold" letter-spacing="0em"><tspan x="148.713" y="336.83">Collective</tspan></text><text fill="#0b3558" font-family="Gilroy" font-size="17.5" font-weight="500" letter-spacing="0em"><tspan x="148.713" y="365.959">Multiple hosts</tspan></text><g clip-path="url(#g__libVJJ76)" clip-rule="evenodd" fill="#0b3558" fill-rule="evenodd"><path d="m268.962 360c0-.414.336-.75.75-.75h18c.415 0 .75.336.75.75s-.335.75-.75.75h-18c-.414 0-.75-.336-.75-.75z"></path><path d="m282.183 354.47c.292-.293.767-.293 1.06 0l5 5c.293.293.293.767 0 1.06l-5 5c-.293.293-.768.293-1.06 0-.293-.293-.293-.767 0-1.06l4.469-4.47-4.469-4.47c-.293-.293-.293-.767 0-1.06z"></path></g><text fill="#0b3558" font-family="Gilroy" font-size="17.5" font-weight="500" letter-spacing="0em"><tspan x="298.713" y="365.959">1 invitee</tspan></text><text fill="#476788" font-family="Gilroy" font-size="17.5" font-weight="500" letter-spacing="0em"><tspan x="148.713" y="393.959">Co-host meetings, group interviews, etc.</tspan></text><path d="m132.713 440c0-6.627 5.373-12 12-12h359c6.628 0 12 5.373 12 12v92c0 6.627-5.372 12-12 12h-359c-6.627 0-12-5.373-12-12z" fill="#f3edfe" fill-opacity=".75"></path><text fill="#773bee" font-family="Gilroy" font-size="20" font-weight="bold" letter-spacing="0em"><tspan x="148.713" y="464.83">Round robin</tspan></text><text fill="#0b3558" font-family="Gilroy" font-size="17.5" font-weight="500" letter-spacing="0em"><tspan x="148.713" y="493.959">Rotating hosts</tspan></text><g clip-path="url(#h__libVJJ76)" clip-rule="evenodd" fill="#0b3558" fill-rule="evenodd"><path d="m274.962 488c0-.414.336-.75.75-.75h18c.415 0 .75.336.75.75s-.335.75-.75.75h-18c-.414 0-.75-.336-.75-.75z"></path><path d="m288.183 482.47c.292-.293.767-.293 1.06 0l5 5c.293.293.293.767 0 1.06l-5 5c-.293.293-.768.293-1.06 0-.293-.293-.293-.767 0-1.06l4.469-4.47-4.469-4.47c-.293-.293-.293-.767 0-1.06z"></path></g><text fill="#0b3558" font-family="Gilroy" font-size="17.5" font-weight="500" letter-spacing="0em"><tspan x="304.713" y="493.959">1 invitee</tspan></text><text fill="#476788" font-family="Gilroy" font-size="17.5" font-weight="500" letter-spacing="0em"><tspan x="148.713" y="521.959">Distribute between team members</tspan></text><path d="m132.713 568c0-6.627 5.373-12 12-12h359c6.628 0 12 5.373 12 12v92c0 6.627-5.372 12-12 12h-359c-6.627 0-12-5.373-12-12z" fill="#fcefff" fill-opacity=".75"></path><text fill="#bb32d5" font-family="Gilroy" font-size="20" font-weight="bold" letter-spacing="0em"><tspan x="148.713" y="592.83">Group</tspan></text><text fill="#0b3558" font-family="Gilroy" font-size="17.5" font-weight="500" letter-spacing="0em"><tspan x="148.713" y="621.959">1 host</tspan></text><g clip-path="url(#i__libVJJ76)" clip-rule="evenodd" fill="#0b3558" fill-rule="evenodd"><path d="m204.962 616c0-.414.336-.75.75-.75h18c.415 0 .75.336.75.75s-.335.75-.75.75h-18c-.414 0-.75-.336-.75-.75z"></path><path d="m218.183 610.47c.292-.293.767-.293 1.06 0l5 5c.293.293.293.767 0 1.06l-5 5c-.293.293-.768.293-1.06 0-.293-.293-.293-.767 0-1.06l4.469-4.47-4.469-4.47c-.293-.293-.293-.767 0-1.06z"></path></g><text fill="#0b3558" font-family="Gilroy" font-size="17.5" font-weight="500" letter-spacing="0em"><tspan x="234.713" y="621.959">Multiple invitees</tspan></text></g></g></g></svg>