<svg fill="none" height="650" viewBox="0 0 650 650" width="650" xmlns="http://www.w3.org/2000/svg" xmlns:xlink="http://www.w3.org/1999/xlink" data-testid="image" aria-label="Add your availability"><title>Add your availability</title><filter id="a__EjzfcVDK" color-interpolation-filters="sRGB" filterUnits="userSpaceOnUse" height="748" width="631" x="9.15625" y="42"><feFlood flood-opacity="0" result="BackgroundImageFix"></feFlood><feColorMatrix in="SourceAlpha" result="hardAlpha" type="matrix" values="0 0 0 0 0 0 0 0 0 0 0 0 0 0 0 0 0 0 127 0"></feColorMatrix><feOffset dy="4"></feOffset><feGaussianBlur stdDeviation="2.5"></feGaussianBlur><feColorMatrix type="matrix" values="0 0 0 0 0.278431 0 0 0 0 0.403922 0 0 0 0 0.533333 0 0 0 0.04 0"></feColorMatrix><feBlend in2="BackgroundImageFix" mode="normal" result="effect1_dropShadow_6889_10291"></feBlend><feColorMatrix in="SourceAlpha" result="hardAlpha" type="matrix" values="0 0 0 0 0 0 0 0 0 0 0 0 0 0 0 0 0 0 127 0"></feColorMatrix><feOffset dy="10"></feOffset><feGaussianBlur stdDeviation="7.5"></feGaussianBlur><feColorMatrix type="matrix" values="0 0 0 0 0.278431 0 0 0 0 0.403922 0 0 0 0 0.533333 0 0 0 0.04 0"></feColorMatrix><feBlend in2="effect1_dropShadow_6889_10291" mode="normal" result="effect2_dropShadow_6889_10291"></feBlend><feColorMatrix in="SourceAlpha" result="hardAlpha" type="matrix" values="0 0 0 0 0 0 0 0 0 0 0 0 0 0 0 0 0 0 127 0"></feColorMatrix><feOffset dy="40"></feOffset><feGaussianBlur stdDeviation="25"></feGaussianBlur><feColorMatrix type="matrix" values="0 0 0 0 0.278431 0 0 0 0 0.403922 0 0 0 0 0.533333 0 0 0 0.1 0"></feColorMatrix><feBlend in2="effect2_dropShadow_6889_10291" mode="normal" result="effect3_dropShadow_6889_10291"></feBlend><feBlend in="SourceGraphic" in2="effect3_dropShadow_6889_10291" mode="normal" result="shape"></feBlend></filter><filter id="b__EjzfcVDK" color-interpolation-filters="sRGB" filterUnits="userSpaceOnUse" height="577.876" width="503.36" x="72.9762" y="121.213"><feFlood flood-opacity="0" result="BackgroundImageFix"></feFlood><feColorMatrix in="SourceAlpha" result="hardAlpha" type="matrix" values="0 0 0 0 0 0 0 0 0 0 0 0 0 0 0 0 0 0 127 0"></feColorMatrix><feMorphology in="SourceAlpha" operator="dilate" radius="9.39335" result="effect1_dropShadow_6889_10291"></feMorphology><feOffset dy="9.39335"></feOffset><feGaussianBlur stdDeviation="9.39335"></feGaussianBlur><feComposite in2="hardAlpha" operator="out"></feComposite><feColorMatrix type="matrix" values="0 0 0 0 0.278431 0 0 0 0 0.403922 0 0 0 0 0.533333 0 0 0 0.04 0"></feColorMatrix><feBlend in2="BackgroundImageFix" mode="normal" result="effect1_dropShadow_6889_10291"></feBlend><feBlend in="SourceGraphic" in2="effect1_dropShadow_6889_10291" mode="normal" result="shape"></feBlend></filter><linearGradient id="c__EjzfcVDK" gradientUnits="userSpaceOnUse" x1="78.4261" x2="672.29" y1="62" y2="463.101"><stop offset="0" stop-color="#fff"></stop><stop offset="1" stop-color="#f0f3f8"></stop></linearGradient><linearGradient id="d__EjzfcVDK" gradientUnits="userSpaceOnUse" x1="324.656" x2="324.656" y1="62" y2="690"><stop offset="0" stop-color="#fff"></stop><stop offset="1" stop-color="#fff"></stop></linearGradient><clipPath id="e__EjzfcVDK"><path d="m0 0h650v650h-650z"></path></clipPath><clipPath id="f__EjzfcVDK"><path d="m131.215 167.492h15.1037v15.1037h-15.1037z"></path></clipPath><clipPath id="g__EjzfcVDK"><path d="m260.854 236.752h15.1037v15.1037h-15.1037z"></path></clipPath><clipPath id="h__EjzfcVDK"><path d="m429.961 289.615h15.1037v15.1037h-15.1037z"></path></clipPath><clipPath id="i__EjzfcVDK"><path d="m467.721 289.615h15.1037v15.1037h-15.1037z"></path></clipPath><clipPath id="j__EjzfcVDK"><path d="m260.854 342.478h15.1037v15.1037h-15.1037z"></path></clipPath><clipPath id="k__EjzfcVDK"><path d="m429.961 395.341h15.1037v15.1037h-15.1037z"></path></clipPath><clipPath id="l__EjzfcVDK"><path d="m467.721 395.341h15.1037v15.1037h-15.1037z"></path></clipPath><clipPath id="m__EjzfcVDK"><path d="m429.961 448.204h15.1037v15.1037h-15.1037z"></path></clipPath><clipPath id="n__EjzfcVDK"><path d="m467.721 448.204h15.1037v15.1037h-15.1037z"></path></clipPath><clipPath id="o__EjzfcVDK"><path d="m429.961 501.065h15.1037v15.1037h-15.1037z"></path></clipPath><clipPath id="p__EjzfcVDK"><path d="m467.721 501.065h15.1037v15.1037h-15.1037z"></path></clipPath><clipPath id="q__EjzfcVDK"><path d="m260.854 553.93h15.1037v15.1037h-15.1037z"></path></clipPath><g clip-path="url(#e__EjzfcVDK)"><g filter="url(#a__EjzfcVDK)"><rect fill="url(#c__EjzfcVDK)" height="628" rx="24" width="511" x="69.1562" y="62"></rect><rect height="638" rx="29" stroke="url(#d__EjzfcVDK)" stroke-opacity=".5" stroke-width="10" width="521" x="64.1562" y="57"></rect><rect fill="#e6f0ff" height="30" rx="15" width="125.818" x="101.156" y="86"></rect><g fill="#004eba"><path d="m119.065 97.5c-.483 0-.875.3918-.875.875v2.625c0 .483.392.875.875.875h2.625c.484 0 .875-.392.875-.875s-.391-.875-.875-.875h-1.75v-1.75c0-.4832-.391-.875-.875-.875z"></path><path clip-rule="evenodd" d="m126.065 101c0 3.866-3.134 7-7 7s-7-3.134-7-7 3.134-7 7-7 7 3.134 7 7zm-1.75 0c0 2.899-2.35 5.25-5.25 5.25-2.899 0-5.25-2.351-5.25-5.25 0-2.8995 2.351-5.25 5.25-5.25 2.9 0 5.25 2.3505 5.25 5.25z" fill-rule="evenodd"></path><text font-family="Gilroy" font-size="16.3636" font-weight="600" letter-spacing="0"><tspan x="132.301" y="106.588">Availability</tspan></text></g><text fill="#0b3558" font-family="Gilroy" font-size="20" font-weight="600" letter-spacing="0em"><tspan x="238.975" y="107.83">Meeting hours</tspan></text><g filter="url(#b__EjzfcVDK)"><path d="m101.156 155.029c0-8.3 6.729-15.029 15.03-15.029h416.941c8.3 0 15.029 6.729 15.029 15.029v491.457c0 8.301-6.729 15.029-15.029 15.029h-416.941c-8.301 0-15.03-6.728-15.03-15.029z" fill="#fff" shape-rendering="crispEdges"></path><path d="m116.186 140.47h416.941c8.041 0 14.559 6.518 14.56 14.559v491.457c-.001 8.041-6.519 14.56-14.56 14.56h-416.941c-8.041 0-14.56-6.519-14.56-14.56v-491.457c0-8.041 6.518-14.559 14.56-14.559z" shape-rendering="crispEdges" stroke="#d4e0ed" stroke-width=".939335"></path><g clip-path="url(#f__EjzfcVDK)" clip-rule="evenodd" fill="#0b3558" fill-rule="evenodd"><path d="m140.605 167.874c.206-.235.564-.259.799-.053l3.021 2.643c.123.108.193.263.193.426 0 .164-.07.319-.193.426l-3.021 2.644c-.235.206-.593.182-.799-.054-.206-.235-.182-.593.053-.799l2.534-2.217-2.534-2.217c-.235-.206-.259-.563-.053-.799z"></path><path d="m133.48 171.457c-.251 0-.491.099-.668.276s-.276.417-.276.668v1.888c0 .312-.254.566-.567.566s-.566-.254-.566-.566v-1.888c0-.551.219-1.079.608-1.469.39-.389.918-.608 1.469-.608h10.572c.313 0 .566.253.566.566s-.253.567-.566.567z"></path><path d="m136.926 176.181c.206.236.182.593-.053.799l-2.534 2.217 2.534 2.217c.235.206.259.564.053.799-.206.236-.564.26-.799.054l-3.021-2.643c-.123-.108-.193-.263-.193-.427 0-.163.07-.318.193-.426l3.021-2.643c.235-.206.593-.182.799.053z"></path><path d="m145.562 175.233c.313 0 .567.253.567.566v1.888c0 .551-.219 1.079-.609 1.468-.389.39-.917.609-1.468.609h-10.573c-.313 0-.566-.254-.566-.567s.253-.566.566-.566h10.573c.25 0 .49-.1.667-.277s.277-.417.277-.667v-1.888c0-.313.253-.566.566-.566z"></path></g><text fill="#0b3558" font-family="Gilroy" font-size="16.9917" font-weight="bold" letter-spacing="0em"><tspan x="153.87" y="180.618">Weekly hours</tspan></text><text fill="#476788" font-family="Gilroy" font-size="13.2157" font-weight="500" letter-spacing="0em"><tspan x="131.215" y="205.26">Set when you are typically available for meetings</tspan></text><rect fill="#004796" height="22.6556" rx="11.3278" width="22.6556" x="131.215" y="232.976"></rect><text fill="#fff" font-family="Gilroy" font-size="11.3278" font-weight="bold" letter-spacing="0em"><tspan x="139.241" y="248.172">S</tspan></text><text fill="#476788" font-family="Gilroy" font-size="13.2157" font-weight="500" letter-spacing="0em"><tspan x="168.974" y="248.687">Unavailable</tspan></text><g clip-path="url(#g__EjzfcVDK)" clip-rule="evenodd" fill="#0b3558" fill-rule="evenodd"><path d="m263.198 239.097c1.381-1.381 3.254-2.157 5.207-2.157 1.952 0 3.825.776 5.206 2.157s2.157 3.254 2.157 5.206c0 1.953-.776 3.826-2.157 5.207s-3.254 2.157-5.206 2.157c-1.953 0-3.826-.776-5.207-2.157s-2.156-3.254-2.156-5.207c0-1.952.775-3.825 2.156-5.206zm5.207-1.024c-1.653 0-3.238.657-4.406 1.825s-1.825 2.753-1.825 4.405c0 1.653.657 3.238 1.825 4.406s2.753 1.825 4.406 1.825c1.652 0 3.237-.657 4.405-1.825s1.825-2.753 1.825-4.406c0-1.652-.657-3.237-1.825-4.405s-2.753-1.825-4.405-1.825z"></path><path d="m268.404 240.716c.313 0 .566.254.566.567v6.041c0 .313-.253.567-.566.567s-.567-.254-.567-.567v-6.041c0-.313.254-.567.567-.567z"></path><path d="m264.817 244.303c0-.312.254-.566.567-.566h6.041c.313 0 .567.254.567.566 0 .313-.254.567-.567.567h-6.041c-.313 0-.567-.254-.567-.567z"></path></g><rect fill="#004796" height="22.6556" rx="11.3278" width="22.6556" x="131.215" y="285.839"></rect><text fill="#fff" font-family="Gilroy" font-size="11.3278" font-weight="bold" letter-spacing="0em"><tspan x="137.924" y="301.035">M</tspan></text><path d="m168.974 285.839c0-4.171 3.381-7.552 7.552-7.552h75.519c4.17 0 7.551 3.381 7.551 7.552v22.656c0 4.17-3.381 7.551-7.551 7.551h-75.519c-4.171 0-7.552-3.381-7.552-7.551z" fill="#f8f9fb"></path><text fill="#0a2540" font-family="Gilroy" font-size="13.2157" font-weight="500" letter-spacing="0em"><tspan x="176.526" y="301.607">9:00 am</tspan></text><text fill="#a6bbd1" font-family="Gilroy" font-size="15.1037" font-weight="500" letter-spacing="0em"><tspan x="267.262" y="302.138">-</tspan></text><path d="m282.7 285.839c0-4.171 3.381-7.552 7.552-7.552h75.519c4.17 0 7.551 3.381 7.551 7.552v22.656c0 4.17-3.381 7.551-7.551 7.551h-75.519c-4.171 0-7.552-3.381-7.552-7.551z" fill="#f8f9fb"></path><text fill="#0a2540" font-family="Gilroy" font-size="13.2157" font-weight="500" letter-spacing="0em"><tspan x="290.252" y="301.607">4:30 pm</tspan></text><g fill="#0b3558"><path d="m403.392 292.727c.298-.298.719-.359.94-.138s.16.642-.138.939l-3.639 3.638 3.639 3.64c.298.297.359.718.138.939s-.642.16-.94-.138l-3.639-3.639-3.638 3.638c-.297.298-.718.36-.939.139s-.16-.642.137-.939l3.639-3.64-3.638-3.638c-.297-.297-.359-.718-.138-.939s.642-.16.939.138l3.639 3.638z"></path><g clip-path="url(#h__EjzfcVDK)" clip-rule="evenodd" fill-rule="evenodd"><path d="m432.306 291.96c1.381-1.381 3.254-2.156 5.206-2.156 1.953 0 3.826.775 5.207 2.156s2.157 3.254 2.157 5.207-.776 3.825-2.157 5.206-3.254 2.157-5.207 2.157c-1.952 0-3.825-.776-5.206-2.157s-2.157-3.253-2.157-5.206.776-3.826 2.157-5.207zm5.206-1.024c-1.652 0-3.237.657-4.405 1.825-1.168 1.169-1.825 2.753-1.825 4.406 0 1.652.657 3.237 1.825 4.405 1.168 1.169 2.753 1.825 4.405 1.825 1.653 0 3.238-.656 4.406-1.825 1.168-1.168 1.825-2.753 1.825-4.405 0-1.653-.657-3.237-1.825-4.406-1.168-1.168-2.753-1.825-4.406-1.825z"></path><path d="m437.512 293.58c.313 0 .566.253.566.566v6.042c0 .312-.253.566-.566.566s-.567-.254-.567-.566v-6.042c0-.313.254-.566.567-.566z"></path><path d="m433.925 297.167c0-.313.254-.567.567-.567h6.041c.313 0 .567.254.567.567s-.254.566-.567.566h-6.041c-.313 0-.567-.253-.567-.566z"></path></g><g clip-path="url(#i__EjzfcVDK)" clip-rule="evenodd" fill-rule="evenodd"><path d="m467.909 293.391c0-.313.253-.567.566-.567h10.573c.312 0 .566.254.566.567v10.572c0 .313-.254.567-.566.567h-10.573c-.313 0-.566-.254-.566-.567zm1.132.566v9.44h9.44v-9.44z"></path><path d="m471.045 290.37c0-.313.253-.566.566-.566h9.411c.428 0 .838.17 1.14.472s.472.712.472 1.139v9.411c0 .313-.254.567-.566.567-.313 0-.567-.254-.567-.567v-9.411c0-.127-.05-.248-.14-.338s-.212-.141-.339-.141h-9.411c-.313 0-.566-.253-.566-.566z"></path></g></g><rect fill="#004796" height="22.6556" rx="11.3278" width="22.6556" x="131.215" y="338.701"></rect><text fill="#fff" font-family="Gilroy" font-size="11.3278" font-weight="bold" letter-spacing="0em"><tspan x="139.484" y="353.897">T</tspan></text><text fill="#476788" font-family="Gilroy" font-size="13.2157" font-weight="500" letter-spacing="0em"><tspan x="168.974" y="354.413">Unavailable</tspan></text><g clip-path="url(#j__EjzfcVDK)" clip-rule="evenodd" fill="#0b3558" fill-rule="evenodd"><path d="m263.198 344.823c1.381-1.381 3.254-2.157 5.207-2.157 1.952 0 3.825.776 5.206 2.157 1.381 1.38 2.157 3.253 2.157 5.206s-.776 3.826-2.157 5.207c-1.381 1.38-3.254 2.156-5.206 2.156-1.953 0-3.826-.776-5.207-2.156-1.381-1.381-2.156-3.254-2.156-5.207s.775-3.826 2.156-5.206zm5.207-1.024c-1.653 0-3.238.656-4.406 1.825-1.168 1.168-1.825 2.753-1.825 4.405s.657 3.237 1.825 4.406c1.168 1.168 2.753 1.824 4.406 1.824 1.652 0 3.237-.656 4.405-1.824 1.168-1.169 1.825-2.754 1.825-4.406s-.657-3.237-1.825-4.405c-1.168-1.169-2.753-1.825-4.405-1.825z"></path><path d="m268.404 346.442c.313 0 .566.254.566.566v6.042c0 .313-.253.566-.566.566s-.567-.253-.567-.566v-6.042c0-.312.254-.566.567-.566z"></path><path d="m264.817 350.029c0-.313.254-.566.567-.566h6.041c.313 0 .567.253.567.566s-.254.566-.567.566h-6.041c-.313 0-.567-.253-.567-.566z"></path></g><rect fill="#004796" height="22.6556" rx="11.3278" width="22.6556" x="131.215" y="391.564"></rect><text fill="#fff" font-family="Gilroy" font-size="11.3278" font-weight="bold" letter-spacing="0em"><tspan x="136.884" y="406.761">W</tspan></text><path d="m168.974 391.565c0-4.171 3.381-7.552 7.552-7.552h75.519c4.17 0 7.551 3.381 7.551 7.552v22.655c0 4.171-3.381 7.552-7.551 7.552h-75.519c-4.171 0-7.552-3.381-7.552-7.552z" fill="#f8f9fb"></path><text fill="#0a2540" font-family="Gilroy" font-size="13.2157" font-weight="500" letter-spacing="0em"><tspan x="176.526" y="407.332">9:30 am</tspan></text><text fill="#a6bbd1" font-family="Gilroy" font-size="15.1037" font-weight="500" letter-spacing="0em"><tspan x="267.262" y="407.863">-</tspan></text><path d="m282.7 391.565c0-4.171 3.381-7.552 7.552-7.552h75.519c4.17 0 7.551 3.381 7.551 7.552v22.655c0 4.171-3.381 7.552-7.551 7.552h-75.519c-4.171 0-7.552-3.381-7.552-7.552z" fill="#f8f9fb"></path><text fill="#0a2540" font-family="Gilroy" font-size="13.2157" font-weight="500" letter-spacing="0em"><tspan x="290.252" y="407.332">5:00 pm</tspan></text><path d="m403.392 398.452c.298-.297.719-.359.94-.138.221.222.159.642-.138.939l-3.639 3.639 3.639 3.639c.298.298.359.718.138.94-.221.221-.642.158-.94-.139l-3.638-3.64-3.639 3.64c-.297.297-.718.36-.939.139s-.16-.642.137-.94l3.639-3.639-3.638-3.639c-.297-.297-.359-.717-.138-.939.221-.221.642-.159.939.138l3.639 3.639z" fill="#0b3558"></path><g clip-path="url(#k__EjzfcVDK)" clip-rule="evenodd" fill="#0b3558" fill-rule="evenodd"><path d="m432.306 397.686c1.381-1.381 3.254-2.157 5.206-2.157 1.953 0 3.826.776 5.207 2.157s2.157 3.254 2.157 5.206c0 1.953-.776 3.826-2.157 5.207s-3.254 2.156-5.207 2.156c-1.952 0-3.825-.775-5.206-2.156s-2.157-3.254-2.157-5.207c0-1.952.776-3.825 2.157-5.206zm5.206-1.024c-1.652 0-3.237.656-4.405 1.825-1.168 1.168-1.825 2.753-1.825 4.405 0 1.653.657 3.237 1.825 4.406 1.168 1.168 2.753 1.825 4.405 1.825 1.653 0 3.238-.657 4.406-1.825 1.168-1.169 1.825-2.753 1.825-4.406 0-1.652-.657-3.237-1.825-4.405-1.168-1.169-2.753-1.825-4.406-1.825z"></path><path d="m437.512 399.305c.313 0 .566.254.566.567v6.041c0 .313-.253.566-.566.566s-.567-.253-.567-.566v-6.041c0-.313.254-.567.567-.567z"></path><path d="m433.925 402.892c0-.312.254-.566.567-.566h6.041c.313 0 .567.254.567.566 0 .313-.254.567-.567.567h-6.041c-.313 0-.567-.254-.567-.567z"></path></g><g clip-path="url(#l__EjzfcVDK)" clip-rule="evenodd" fill="#0b3558" fill-rule="evenodd"><path d="m467.909 399.116c0-.312.253-.566.566-.566h10.573c.312 0 .566.254.566.566v10.573c0 .313-.254.566-.566.566h-10.573c-.313 0-.566-.253-.566-.566zm1.132.567v9.44h9.44v-9.44z"></path><path d="m471.045 396.096c0-.313.253-.567.566-.567h9.411c.428 0 .838.17 1.14.472.302.303.472.712.472 1.14v9.411c0 .313-.254.566-.566.566-.313 0-.567-.253-.567-.566v-9.411c0-.127-.05-.249-.14-.339-.09-.089-.212-.14-.339-.14h-9.411c-.313 0-.566-.254-.566-.566z"></path></g><rect fill="#004796" height="22.6556" rx="11.3278" width="22.6556" x="131.215" y="444.428"></rect><text fill="#fff" font-family="Gilroy" font-size="11.3278" font-weight="bold" letter-spacing="0em"><tspan x="136.215" y="459.624">Th</tspan></text><path d="m168.974 444.428c0-4.171 3.381-7.552 7.552-7.552h75.519c4.17 0 7.551 3.381 7.551 7.552v22.655c0 4.171-3.381 7.552-7.551 7.552h-75.519c-4.171 0-7.552-3.381-7.552-7.552z" fill="#f8f9fb"></path><text fill="#0a2540" font-family="Gilroy" font-size="13.2157" font-weight="500" letter-spacing="0em"><tspan x="176.526" y="460.196">10:00 am</tspan></text><text fill="#a6bbd1" font-family="Gilroy" font-size="15.1037" font-weight="500" letter-spacing="0em"><tspan x="267.262" y="460.726">-</tspan></text><path d="m282.7 444.428c0-4.171 3.381-7.552 7.552-7.552h75.519c4.17 0 7.551 3.381 7.551 7.552v22.655c0 4.171-3.381 7.552-7.551 7.552h-75.519c-4.171 0-7.552-3.381-7.552-7.552z" fill="#f8f9fb"></path><text fill="#0a2540" font-family="Gilroy" font-size="13.2157" font-weight="500" letter-spacing="0em"><tspan x="290.252" y="460.196">6:00 pm</tspan></text><path d="m403.392 451.315c.298-.297.719-.358.94-.137s.159.641-.138.938l-3.639 3.639 3.639 3.639c.297.298.359.719.138.94s-.642.159-.94-.139l-3.638-3.639-3.639 3.639c-.297.298-.718.36-.939.139s-.16-.642.137-.94l3.639-3.639-3.638-3.639c-.297-.297-.359-.717-.138-.938s.642-.16.939.137l3.639 3.639z" fill="#0b3558"></path><g clip-path="url(#m__EjzfcVDK)" clip-rule="evenodd" fill="#0b3558" fill-rule="evenodd"><path d="m432.306 450.549c1.381-1.381 3.254-2.156 5.206-2.156 1.953 0 3.826.775 5.207 2.156s2.157 3.254 2.157 5.207c0 1.952-.776 3.825-2.157 5.206s-3.254 2.157-5.207 2.157c-1.952 0-3.825-.776-5.206-2.157s-2.157-3.254-2.157-5.206c0-1.953.776-3.826 2.157-5.207zm5.206-1.024c-1.652 0-3.237.657-4.405 1.825-1.168 1.169-1.825 2.753-1.825 4.406 0 1.652.657 3.237 1.825 4.405 1.168 1.169 2.753 1.825 4.405 1.825 1.653 0 3.238-.656 4.406-1.825 1.168-1.168 1.825-2.753 1.825-4.405 0-1.653-.657-3.237-1.825-4.406-1.168-1.168-2.753-1.825-4.406-1.825z"></path><path d="m437.512 452.169c.313 0 .566.253.566.566v6.041c0 .313-.253.567-.566.567s-.567-.254-.567-.567v-6.041c0-.313.254-.566.567-.566z"></path><path d="m433.925 455.756c0-.313.254-.567.567-.567h6.041c.313 0 .567.254.567.567 0 .312-.254.566-.567.566h-6.041c-.313 0-.567-.254-.567-.566z"></path></g><g clip-path="url(#n__EjzfcVDK)" clip-rule="evenodd" fill="#0b3558" fill-rule="evenodd"><path d="m467.909 451.98c0-.313.253-.567.566-.567h10.573c.312 0 .566.254.566.567v10.572c0 .313-.254.567-.566.567h-10.573c-.313 0-.566-.254-.566-.567zm1.132.566v9.44h9.44v-9.44z"></path><path d="m471.045 448.959c0-.313.253-.566.566-.566h9.411c.428 0 .838.169 1.14.472.302.302.472.712.472 1.139v9.411c0 .313-.254.567-.566.567-.313 0-.567-.254-.567-.567v-9.411c0-.127-.05-.249-.14-.338-.09-.09-.212-.141-.339-.141h-9.411c-.313 0-.566-.253-.566-.566z"></path></g><rect fill="#004796" height="22.6556" rx="11.3278" width="22.6556" x="131.215" y="497.29"></rect><text fill="#fff" font-family="Gilroy" font-size="11.3278" font-weight="bold" letter-spacing="0em"><tspan x="139.606" y="512.486">F</tspan></text><path d="m168.974 497.29c0-4.171 3.381-7.552 7.552-7.552h75.519c4.17 0 7.551 3.381 7.551 7.552v22.656c0 4.17-3.381 7.552-7.551 7.552h-75.519c-4.171 0-7.552-3.382-7.552-7.552z" fill="#f8f9fb"></path><text fill="#0a2540" font-family="Gilroy" font-size="13.2157" font-weight="500" letter-spacing="0em"><tspan x="176.526" y="513.058">10:00 am</tspan></text><text fill="#a6bbd1" font-family="Gilroy" font-size="15.1037" font-weight="500" letter-spacing="0em"><tspan x="267.262" y="513.589">-</tspan></text><path d="m282.7 497.29c0-4.171 3.381-7.552 7.552-7.552h75.519c4.17 0 7.551 3.381 7.551 7.552v22.656c0 4.17-3.381 7.552-7.551 7.552h-75.519c-4.171 0-7.552-3.382-7.552-7.552z" fill="#f8f9fb"></path><text fill="#0a2540" font-family="Gilroy" font-size="13.2157" font-weight="500" letter-spacing="0em"><tspan x="290.252" y="513.058">3:00 pm</tspan></text><path d="m403.392 504.177c.298-.298.719-.359.94-.138s.159.641-.138.938l-3.639 3.639 3.639 3.64c.298.297.359.718.138.939s-.642.159-.94-.138l-3.638-3.639-3.639 3.639c-.297.297-.718.359-.939.138s-.16-.642.137-.939l3.639-3.64-3.638-3.638c-.297-.297-.359-.718-.138-.939s.642-.16.939.138l3.639 3.638z" fill="#0b3558"></path><g clip-path="url(#o__EjzfcVDK)" clip-rule="evenodd" fill="#0b3558" fill-rule="evenodd"><path d="m432.306 503.41c1.381-1.38 3.254-2.156 5.206-2.156 1.953 0 3.826.776 5.207 2.156 1.381 1.381 2.157 3.254 2.157 5.207s-.776 3.826-2.157 5.206c-1.381 1.381-3.254 2.157-5.207 2.157-1.952 0-3.825-.776-5.206-2.157-1.381-1.38-2.157-3.253-2.157-5.206s.776-3.826 2.157-5.207zm5.206-1.023c-1.652 0-3.237.656-4.405 1.824-1.168 1.169-1.825 2.754-1.825 4.406s.657 3.237 1.825 4.405c1.168 1.169 2.753 1.825 4.405 1.825 1.653 0 3.238-.656 4.406-1.825 1.168-1.168 1.825-2.753 1.825-4.405s-.657-3.237-1.825-4.406c-1.168-1.168-2.753-1.824-4.406-1.824z"></path><path d="m437.512 505.03c.313 0 .566.253.566.566v6.042c0 .313-.253.566-.566.566s-.567-.253-.567-.566v-6.042c0-.313.254-.566.567-.566z"></path><path d="m433.925 508.617c0-.313.254-.566.567-.566h6.041c.313 0 .567.253.567.566s-.254.566-.567.566h-6.041c-.313 0-.567-.253-.567-.566z"></path></g><g clip-path="url(#p__EjzfcVDK)" clip-rule="evenodd" fill="#0b3558" fill-rule="evenodd"><path d="m467.909 504.841c0-.313.253-.566.566-.566h10.573c.312 0 .566.253.566.566v10.573c0 .312-.254.566-.566.566h-10.573c-.313 0-.566-.254-.566-.566zm1.132.566v9.44h9.44v-9.44z"></path><path d="m471.045 501.82c0-.313.253-.566.566-.566h9.411c.428 0 .838.17 1.14.472s.472.712.472 1.139v9.412c0 .312-.254.566-.566.566-.313 0-.567-.254-.567-.566v-9.412c0-.127-.05-.248-.14-.338s-.212-.14-.339-.14h-9.411c-.313 0-.566-.254-.566-.567z"></path></g><rect fill="#004796" height="22.6556" rx="11.3278" width="22.6556" x="131.215" y="550.153"></rect><text fill="#fff" font-family="Gilroy" font-size="11.3278" font-weight="bold" letter-spacing="0em"><tspan x="139.241" y="565.35">S</tspan></text><text fill="#476788" font-family="Gilroy" font-size="13.2157" font-weight="500" letter-spacing="0em"><tspan x="168.974" y="565.865">Unavailable</tspan></text><g clip-path="url(#q__EjzfcVDK)" clip-rule="evenodd" fill="#0b3558" fill-rule="evenodd"><path d="m263.198 556.275c1.381-1.381 3.254-2.157 5.207-2.157 1.952 0 3.825.776 5.206 2.157s2.157 3.253 2.157 5.206-.776 3.826-2.157 5.207-3.254 2.156-5.206 2.156c-1.953 0-3.826-.775-5.207-2.156s-2.156-3.254-2.156-5.207.775-3.825 2.156-5.206zm5.207-1.024c-1.653 0-3.238.656-4.406 1.825-1.168 1.168-1.825 2.753-1.825 4.405 0 1.653.657 3.237 1.825 4.406 1.168 1.168 2.753 1.825 4.406 1.825 1.652 0 3.237-.657 4.405-1.825 1.168-1.169 1.825-2.753 1.825-4.406 0-1.652-.657-3.237-1.825-4.405-1.168-1.169-2.753-1.825-4.405-1.825z"></path><path d="m268.404 557.894c.313 0 .566.254.566.566v6.042c0 .313-.253.566-.566.566s-.567-.253-.567-.566v-6.042c0-.312.254-.566.567-.566z"></path><path d="m264.817 561.481c0-.313.254-.566.567-.566h6.041c.313 0 .567.253.567.566s-.254.567-.567.567h-6.041c-.313 0-.567-.254-.567-.567z"></path></g><text fill="#0b3558" font-family="Gilroy" font-size="15.0294" font-weight="600" letter-spacing="0em"><tspan x="131.215" y="618.575">Timezone:</tspan></text><text fill="#476788" font-family="Gilroy" font-size="13.1507" font-weight="500" letter-spacing="0em"><tspan x="209.18" y="617.92">Eastern time - US &amp; Canada</tspan></text><path clip-rule="evenodd" d="m390.254 610.826c.257-.269.672-.269.929 0l3.576 3.765 3.576-3.765c.256-.269.672-.269.928 0 .256.27.256.708 0 .978l-4.04 4.254c-.256.27-.672.27-.929 0l-4.04-4.254c-.256-.27-.256-.708 0-.978z" fill="#476788" fill-rule="evenodd"></path></g></g></g></svg>